<?xml version="1.0" encoding="utf-8"?>
<!-- Generator: Adobe Illustrator 28.1.0, SVG Export Plug-In . SVG Version: 6.00 Build 0)  -->
<svg version="1.1" id="Layer_1" xmlns="http://www.w3.org/2000/svg" xmlns:xlink="http://www.w3.org/1999/xlink" x="0px" y="0px"
	 viewBox="0 0 792 612" style="enable-background:new 0 0 792 612;" xml:space="preserve">
<style type="text/css">
	.st0{fill:none;stroke:#F0F0F0;stroke-width:1.5;stroke-linecap:round;stroke-linejoin:round;}
</style>
<g>
	<path class="st0" d="M619.69,268.9c-7.08,3.45-13.15,8.27-19.95,12.15c-5.53,3.15-13.51,5.28-18.14,9.56"/>
	<path class="st0" d="M581.57,290.72c-1.4,2.22,15.2,9.69,17.34,11.03c7.98,4.95,15.29,10.63,24,14.37"/>
	<path class="st0" d="M622.82,316.46c0.23-1.2,2.68-1.99,3.78-2.66c6.54-3.94,12.94-7.85,19.21-12.22
		c6.1-4.25,12.5-7.98,18.76-11.99c3.36-2.15,7.67-3.63,9.97-6.66"/>
	<path class="st0" d="M630.17,263.75c-1.97-1.04-7.21,3.07-9.27,4.16c-2.71,1.43-5.99,2.66-8.39,4.58"/>
	<path class="st0" d="M629.69,263.27c1.4-0.62,5.27,0.92,7,1.43c3.23,0.96,6.4,2.33,9.49,3.66c5.38,2.31,10.52,5.57,15.67,8.37
		c3.25,1.77,7.05,2.7,10.23,4.57c1.08,0.64,1.73,1.63,3.01,1.9"/>
	<path class="st0" d="M674.62,283.56c-1.28,3.55-0.83,8.92-0.47,13.14"/>
	<path class="st0" d="M622.49,315.89c-0.46,1.2-0.31,3.1,0.47,4.09c0.25-0.12,0.26,1.33,0.3,1.04"/>
	<path class="st0" d="M674.04,296.19c-5.07,5.17-13.96,7.62-20.48,10.45c-5.54,2.41-10.78,5.43-16.28,7.92
		c-4.81,2.18-9.8,4.18-14.3,6.95"/>
	<path class="st0" d="M581.49,290.58c-0.58,2.04,0.13,5.27,1.12,6.92"/>
	<path class="st0" d="M581.99,297.58c-0.35,0.34,2.97,2.15,3.98,2.69c2.23,1.2,4.45,2.39,6.72,3.52c2.97,1.48,5.43,3.75,8.17,5.51
		c4.97,3.18,10.01,6.78,15.59,8.79c2.55,0.92,4.85,1.99,7.34,3.08"/>
	<path class="st0" d="M629.62,267.34c-2.14,0.45-4.46,1.7-7.32,3.65c7.97,4.23,16.58,8.83,24.76,12.75c3.33,1.6,6.24,2.53,9.39,3.94
		"/>
	<path class="st0" d="M663.38,283.67c-1.56,1.49-6.14,3.52-7.61,4.32"/>
	<path class="st0" d="M630.72,268.1c-0.2-0.24-0.32-0.33-0.42-0.59c7.25,2.62,13.88,6.66,20.71,10.03c4.22,2.09,8.86,3.4,12.79,5.96
		c0.19,0.26-0.21,0.03-0.42,0.17"/>
	<path class="st0" d="M617.42,274.25c-0.11-0.03-0.23-0.06-0.34-0.09c2.25,0.86,4.19,2.44,6.46,3.22"/>
	<path class="st0" d="M629.61,280.97c2.79,0.83,5.23,3,8,4.01"/>
	<path class="st0" d="M644.1,288.27c2.35,0.56,4.46,2.17,6.81,2.83"/>
	<path class="st0" d="M617.63,274.23c-0.58-0.14-1.6,0.7-2.15,1.02c-1.2,0.72-2.94,1.39-3.88,2.39"/>
	<path class="st0" d="M607.22,281.21c-1.88,0.96-4.5,1.85-6.27,3.28"/>
	<path class="st0" d="M594.2,288.06c-1.53,0.54-3.09,1.37-4.4,2.33"/>
	<path class="st0" d="M593.79,287.82c0.46,0.24,1.92,1.32,2.68,1.8c1.22,0.78,2.73,1.15,3.89,1.98"/>
	<path class="st0" d="M589.44,290.5c2.02,0.93,3.77,2.24,5.88,3"/>
	<path class="st0" d="M600.07,291.66c-1.46,1.17-3.8,1.54-5.15,2.62"/>
	<path class="st0" d="M601.27,284.3c1.75,0.76,3.77,2.07,5.33,3.06"/>
	<path class="st0" d="M611.52,284.82c-0.86,1.39-3.64,1.89-5.08,2.63"/>
	<path class="st0" d="M606.96,281.69c0.42,0.02,2.36,1.52,3.11,1.92c0.98,0.52,1.95,1.18,2.99,1.54"/>
	<path class="st0" d="M612.01,277.34c2.66,0.57,4.96,2.24,7.45,3.26"/>
	<path class="st0" d="M623.68,277.89c0.02,1-4,2.41-5.06,3.05"/>
	<path class="st0" d="M629.91,280.92c-1.11,0.39-3.28,1.8-4.66,2.57"/>
	<path class="st0" d="M637.41,284.78c0.09,0.08-1.35,0.6-1.79,0.77c-0.98,0.39-1.92,1.01-2.91,1.34"/>
	<path class="st0" d="M619.36,288.17c0.93,0.21,1.82,0.91,2.63,1.38c1.3,0.76,2.63,1.37,3.97,2.04"/>
	<path class="st0" d="M625.75,283.9c0.43-0.37,4.44,2.39,5.3,2.9c0.65,0.39,1.21,0.3,1.73,0.71"/>
	<path class="st0" d="M644.42,288.52c-0.68-0.03-1.63,0.9-2.21,1.24c-0.9,0.53-1.86,0.96-2.74,1.53"/>
	<path class="st0" d="M639.32,291.22c0.6-0.31,2.87,1.38,3.58,1.74c0.59,0.3,2.85,0.81,2.88,1.45"/>
	<path class="st0" d="M650.2,291.49c-0.79,0.12-2.04,0.86-2.74,1.3c-0.89,0.56-1.24,0.84-2.05,1.49"/>
	<path class="st0" d="M619.7,288.26c-1.59,0.45-4.24,0.89-5.36,2.15"/>
	<path class="st0" d="M614.31,290.52c0.19,0.9,3.7,2.18,4.57,2.57c1.17,0.54,1.11,0.93,2.4,1.2"/>
	<path class="st0" d="M626.07,291.83c-0.74,0.09-1.7,0.79-2.39,1.12c-0.87,0.42-1.82,0.78-2.61,1.32"/>
	<path class="st0" d="M632.98,295.45c-1.48,0.3-2.89,1.77-4.24,2.51"/>
	<path class="st0" d="M632.71,295.1c0.95,0.05,1.94,0.78,2.77,1.19c1.14,0.57,2.49,0.99,3.58,1.48"/>
	<path class="st0" d="M628.71,297.76c0.65,2.02,3.77,2.52,5.34,3.31"/>
	<path class="st0" d="M638.83,298.2c-1.31,0.89-3.7,1.62-4.55,2.92"/>
	<path class="st0" d="M608.33,294.93c-1.74,1.3-4.44,1.73-5.88,3.39"/>
	<path class="st0" d="M602.92,298.22c0.81-0.09,2.48,1.45,3.23,1.92c0.7,0.43,2.32,0.89,2.75,1.54"/>
	<path class="st0" d="M613.38,298.77c-0.69,1.12-3,1.87-4.3,2.86"/>
	<path class="st0" d="M607.32,295.21c0.65-0.27,3.77,1.85,4.51,2.32c1.01,0.65,0.8,0.73,1.97,1.06"/>
	<path class="st0" d="M621.38,302.91c-0.04-0.02-1.58,0.99-1.89,1.15c-1.08,0.55-2.24,0.92-3.36,1.37"/>
	<path class="st0" d="M616.43,305.47c-0.48,1.57,4.47,3.56,5.56,4.3"/>
	<path class="st0" d="M626.95,306.86c-1.61,0.25-3.09,1.88-4.61,2.45"/>
	<path class="st0" d="M621.01,303.13c1.32,0.02,3.01,1.65,4.04,2.32c1.17,0.76,0.91,0.69,2.2,1.17"/>
</g>
<path class="st0" d="M214.95,498.33c18.25,4.46,33.22,7.4,44.13,23.92c5.44,8.23,9.19,18.17,12.14,27.59"/>
<path class="st0" d="M162.6,508.68c-21.55-5.04-28.03-15.87-26.87-26.03c1.4-12.32,12.65-19.2,21.3-23.01
	c14.34-6.32,31.2-6.91,46.46-4.22c7,1.24,33.29,5.42,33.29,19.67c0,8.79-7.92,11.28-17.81,7.93"/>
<path class="st0" d="M175.9,433.89c-15.63-2.87-23.22-15.8-22.9-22.52c0.47-10.22,11.57-15.5,20.46-18.33
	c16.64-5.3,45.24-7.63,62.49-5.01c10.9,1.66,21.71,7.99,21.86,15.59c0.13,6.49-8.56,13.87-26.04,8.36"/>
<path class="st0" d="M213.06,383.7c-17.37-14.02-20.49-44.8-2.5-56.27c3.23-2.06,9.54-4.32,13.11-1.51
	c1.69,1.33,2.56,4.58,1.32,6.66c-0.92,1.54-4.34,2.35-5.42,0.82"/>
<path class="st0" d="M168.2,490.21c-7-1.68-13.5-5.52-12.6-12.32c1.27-9.52,14.03-14.21,21.96-16.4c10.26-2.84,21.1-3.43,31.52-1.13
	c5.22,1.15,14.17,3.07,17.28,8.1c2.26,3.67,0.17,8.07-4.53,7.38"/>
<path class="st0" d="M175.58,424.15c-11.49-6.06-11.49-16.59-1.04-23.47c6.67-4.4,16.09-5.59,23.91-6.9
	c8.85-1.48,17.44-2.37,26.49-2.15c3.32,0.08,14.63,2.02,17.96,6.33c3.44,4.45-6.11,4.83-8.36,1.57"/>
<path class="st0" d="M209.63,523.52c0,0,15.95,7.84,19.03,25.19"/>
<path class="st0" d="M213.91,513.72c0,0,24.35,5.66,30.5,35.17"/>
<path class="st0" d="M162.25,457.89c0,0-24.11,8.61-21.4,24.59c2.46,14.51,22.63,16.97,22.63,16.97"/>
<path class="st0" d="M197.13,380.42c0,0-11.66-14.17-4.06-41.26"/>
<path class="st0" d="M267.29,537.74c4.73-1.11,10.53,3.5,13.59,6.55c1.52,1.51,2.69,3.92,3.16,6.01"/>
<path class="st0" d="M263.37,529.72c4.16-1.48,9.64,0.31,13.56,1.69c4.14,1.46,8.2,3.67,10.78,7.32c2.27,3.23,5.72,8.52,5.61,12.75"
	/>
<path class="st0" d="M256.45,517.89c-0.18-0.11-0.33,0.11-0.36-0.18c6.09-1.39,12.52-1.77,16.37,4.08c1.34,2.04,3.23,6.24,2.01,8.75
	"/>
<path class="st0" d="M250.35,511.42c1.26-1.21,3.35-1.48,4.99-1.84c3.65-0.8,7.57-1.39,11.3-0.94c5.19,0.62,11.8,4.05,14.32,8.83
	c2.44,4.64,1.97,9.92,1.07,14.78c-0.21,0.08-0.41,0.21-0.63,0.29"/>
<path class="st0" d="M225.32,539.19c-0.14-0.2-0.43-0.25-0.73-0.18"/>
<path class="st0" d="M225.32,539.19c-6.16-0.93-12.44,2.64-12.2,9.29"/>
<path class="st0" d="M219.4,531.82c-2.82-0.71-6.62,1.24-8.95,2.57c-4,2.27-6.12,5.62-6.72,10.13c-0.82,6.17,0.67,10.16,5.25,14.19
	c1.31,1.15,2.44,2.5,4.23,2.88"/>
<path class="st0" d="M203.93,529.72c-2.33,2.44,0.14,5.84,2.64,6.83"/>
<path class="st0" d="M196.64,528.08c-0.76,3.44-0.75,7.34,2.12,9.81c1.18,1.02,3.29,3.02,4.89,3.21"/>
<path class="st0" d="M244.89,507.88c-1.99-3.36,3.39-5.68,6.04-4.77c2.44,0.84,3.51,4.73,1.88,6.77"/>
<path class="st0" d="M253.63,509.15c5.64,0.43,8.23-0.63,11.93-1.64c2.27-0.62,5.15-2.41,2.91-5.83c-3.09-4.73-9.91,1.26-15.02,3.82
	c1.86-2.46,6.25-4.24,6.94-7.53c0.59-2.79-0.97-5.57-3.66-6.36c-6.29-1.84-6.35,6.98-7.74,10.97c-0.53-3.13,0.47-8.31-2.07-10.72
	c-1.94-1.84-7.1-2.42-9.01-0.24c-3.35,3.81,6,9.52,7.07,13.06c-1.77-3.51-9.52-9.23-13.62-7.97c-4.67,1.43-0.94,5.6,2.52,6.88"/>
<path class="st0" d="M265.37,366.86c-2.32,0.46-0.73,4.21,1.64,3.09c3.19-1.5-0.55-5.14-3.06-2.83"/>
<path class="st0" d="M186,387.98c-5.18-2.89-5.33-14.25-6.67-22.42c-0.93-5.71-3.43-12.68-9.08-15.08
	c-6.18-2.62-12.37,5.61-3.09,6.01"/>
<path class="st0" d="M173.25,352.6c4.9,2.92,0.13,10.9-3.71,11.63c-11.46,2.2-18.75-6.53-19.34-15.63
	c-1.55-23.85,44.51-20.04,40.34,7.81"/>
<path class="st0" d="M212.7,326.31c-5.34,1.53-7.56,11.49-5.25,16.01c7.65,14.93,25.97,4.03,30.92-2.03
	c3.68-4.51,5.49-10.35,4.68-15.95c-0.85-5.9-4.7-10.84-9.87-12.81c-6.14-2.33-15-0.42-22.13,4.18c-9.16,5.9-14.52,14.18-18.3,24.21"
	/>
<path class="st0" d="M347.93,455.49c-7.39-10.19-20.73-11.43-31.45-5.51c-12.58,6.95-12.06,23.19-3.2,34.24
	c9.05,11.29,22.46,14.36,34.3,21.53c11.11,6.72,21.44,19.44,26.03,48.34"/>
<path class="st0" d="M394.94,554.78c-3.67-22.7-9.86-27.98-15.59-36c-4.32-6.05-12.79-13.63-16.49-20.06
	c-6.12-10.65,0.01-25.57,13.9-23.68c9.13,1.24,15.59,17.81,3.05,15.31"/>
<path class="st0" d="M378.89,475.67c-8.81-2.42-15.05,7.13-14.11,14.85c1.28,10.51,14.69,16.17,24.1,13.29
	c6.25-1.92,11.04-7.48,13.17-13.46c2.25-6.32,0.57-13.05-3.21-18.11c-7.5-10.05-18.42-13.65-31.6-7.26
	c-8.13,3.94-13.26,10.8-15.41,18.72c-2.97,10.96-1.9,20.79,6.42,30.73"/>
<path class="st0" d="M294.03,470.04c-1.54,12.83,3.39,23.31,12.95,31.95c4.92,4.44,10.2,7.48,15.75,10.95
	c11.11,6.93,22.16,20.03,26.12,32.65c0.71,2.26,1.53,4.93,1.64,7.31"/>
<path class="st0" d="M324.01,447.13c8.4,0,14.51,4.58,17.82,13.62"/>
<path class="st0" d="M350.37,499.43c-1.74-0.13-3.34,0.47-4.41,1.94c-0.49,0.68-1.57,3.25,0,2.76"/>
<path class="st0" d="M339.59,501.2c-0.05-3.63,0.83-4.97,4.15-6.88c1.99-1.14,4.22-1.8,6.44-2.23"/>
<path class="st0" d="M137.18,492.69c0,0-10.12-9.11-36.79-6.31c-25.1,2.64-38.66-7.96-32.43-16.47c6.58-8.99,17.72,1.52,10.09,7.31
	c0,0,2.75,4.39,13.73,2.2c10.98-2.2,17.03-14.83,5.49-26.18c-11.53-11.35-49.05-1.93-39.82,25.65c8.35,24.92,72.71,2.33,96.01,69.91
	"/>
<path class="st0" d="M57.45,478.9c0,0,3.42,14.3,34.42,15.06c31,0.76,64.28,9.62,87.06,54.92"/>
<path class="st0" d="M79.09,477.25c0,0,14.64,2.98,14.05-11.64c-0.52-12.89-13.67-17.84-24.17-13.67"/>
<path class="st0" d="M187.08,340.23c0,0-1.51-14.41,20.68-34.74c22.19-20.33,4.71-25.56-0.92-21.11c0,0-2.16-4.35,5.83-9.48
	c8-5.13,21.61-1.05,23.12,13.24c1.51,14.29-6.3,22.06-6.3,22.06"/>
<path class="st0" d="M207.81,282.95c0,0,8.8-10.27,15.85-2.35c7.05,7.92,4.7,20.82-10.28,33.61"/>
<path class="st0" d="M183.68,268.71c3.87,7.99,7.63,19.67,8.35,28.98c0.44,5.66,2.08,16.95,0.81,24.93"/>
<path class="st0" d="M177.19,270.6c-0.96,5.87-0.43,19.02,0.55,25.28c1.76,11.13,5.86,25.65,11.08,35.07"/>
<path class="st0" d="M176.39,280.17c3.52,0.59,7.47-0.03,10.44-2.55"/>
<path class="st0" d="M175.59,270.87c4.8-0.1,13.54,0.46,13.47-8.99c-0.07-10.29-19.25-15.91-12.49-27.08"/>
<path class="st0" d="M176.91,270.61c-3.06,1.34-6.29-3.84-7.3-9.04c-0.73-3.75-0.35-7.69,0.73-11.23c1.17-3.82,4.09-8.99,4.86-12.89
	"/>
<path class="st0" d="M177.66,270.36c-3.45-3.29-5.42-9.35-4.54-13.54"/>
<path class="st0" d="M174.79,241.87c-3.52,9.68,7.42,18.91,5.03,27.98"/>
<path class="st0" d="M183.51,269.79c0.95-3.07,0.82-6.46-0.61-9.42"/>
<path class="st0" d="M180.68,310.28c0,0-7.56-20.95-21.92-29.88"/>
<path class="st0" d="M155.45,286.04c0,0,21.43,14.16,32.7,46.78"/>
<path class="st0" d="M152.98,291.66c0,0,25.02,20.14,33.96,45.94"/>
<path class="st0" d="M150.29,296.1c0,0,20.47,15.96,32.82,41.44"/>
<path class="st0" d="M150.49,296.88c-1.99,0.33-8.88-18.89-10.46-16.97"/>
<path class="st0" d="M159.45,280.86c-0.32-2.19-7.39-3.03-9.02-3.66c-2.17-0.83-6.08-2.66-8-2.51"/>
<path class="st0" d="M140.18,279.51c1.2,0.06,4.19-3.71,2.35-4.52"/>
<path class="st0" d="M139.91,279.03c-0.12-2.43-3.89-3.95-3.81-6.77c3.06-0.92,4.88,3.21,7.86,3.07"/>
<path class="st0" d="M148.93,295.45c2.07,0,3.55-2.3,2.6-4.43"/>
<path class="st0" d="M151.3,291.52c1.56-0.34,3-0.01,3.78-2.12c0.44-1.19,0.12-3.35-0.65-4.01"/>
<path class="st0" d="M154.43,285.39c0.4,0.55,2.92,0.17,3.61-1.27c0.44-0.93,0.2-2.17,0.16-3.21"/>
<path class="st0" d="M193.36,306.84c1.57-2.7,8.99-1.16,10.56,1.21"/>
<path class="st0" d="M192.51,299.83c-0.26-1.9,15.65-3.47,16.02,3.7"/>
<path class="st0" d="M191.84,290.81c3.17-0.69,7.45-1.47,12.38-0.23c1.79,0.44,5.05,1.81,6.48,3.05c1.02,0.89,2.55,3.13,2.96,4.36"
	/>
<path class="st0" d="M172.62,320.42c-6.87-3.55-11.95-4.86-20.06-4.58"/>
<path class="st0" d="M151.25,315.89c-2.6,1.62-5.01,4.16-7.91,5.22"/>
<path class="st0" d="M151.82,316.98c-0.17,1.52-0.97,3.84-1.17,5.41"/>
<path class="st0" d="M142.71,321.94c-0.46,2.28-2.22,5.82-2.29,8.11"/>
<path class="st0" d="M141.21,329.08c1.03,1.01,7.63-4.57,9.29-5.82"/>
<path class="st0" d="M150.15,323.74c5.14,0,10.41,1.4,15.3,2.87c5.68,1.71,9.62,2.44,14.61,5.83"/>
<path class="st0" d="M140.57,330.39c2.46,0.05,4.92-0.08,7.38,0.06c3.25,0.19,8.19,0.54,15.71,2.72"/>
<path class="st0" d="M145.62,340.67c-2.37-0.05-4.69-0.38-7.04-0.51"/>
<path class="st0" d="M144.75,351.56c-2.18,0.33-4.45,0.19-6.62,0.72"/>
<path class="st0" d="M149.52,361.4c-1.04,1.12-3.23,2.16-4.64,3.12"/>
<path class="st0" d="M158.33,367.96c-0.36,1.18-1.03,2.26-1.34,3.48"/>
<path class="st0" d="M170.16,369.7c0.44,0.4,0.68,1.87,0.85,2.76"/>
<path class="st0" d="M232.84,305.35c1.36-1.71,4.6-0.02,4.69,2.02c0.1,2.11-1.4,3.75-3.38,4.1"/>
<path class="st0" d="M236.3,292.68c-1.17-1.52,4.21-4.46,6.02-1.31c2.39,4.16-3.77,9.18-6.06,11.98"/>
<path class="st0" d="M241.6,298.03c2.51-2.94,7.93-0.3,6.86,3.63c-1.22,4.51-7.42,5.51-11.23,5.74"/>
<path class="st0" d="M236.73,310.45c3.22,1.72,7.39,3.03,10.99,1.64c2.52-0.97,3.18-6.84-1.22-6.65"/>
<path class="st0" d="M240.87,318.15c3.05,0.78,5.48-1.76,4.96-4.64"/>
<g>
	<path class="st0" d="M582.52,161.07c-6.23,3.19-32.59,16.77-27.68,25.57c2.78,4.98,17.39,8.03,22.3,10.49
		c7.84,3.94,15.38,9.8,24.12,11.56c14.45,2.9,28.34-5.19,34.66-18.04c5.96-12.12-8.53-14.1-18.2-16.77
		C606.27,170.73,593.82,164.7,582.52,161.07"/>
	<path class="st0" d="M598.31,166.38c-0.93-3.07,5.82-6.84,8.74-8.15c6.08-2.73,11.71-1.19,18.02,0.44
		c12.52,3.25,14.57,8.71,6.51,18.71"/>
	<path class="st0" d="M604.17,168.92c4.46-9.34,12.4-11.45,21.35-10.17"/>
	<path class="st0" d="M632.23,161.35c10.77,2.28,12.95,12.26,3.78,20.13"/>
	<path class="st0" d="M579.78,191.81c-3.76,3.25-7.95,8.86-9.61,13.59c7.71,3.52,10.43-5.86,14.46-10.21
		c-1.66-1.3-3.71-2.4-5.75-3.06"/>
	<path class="st0" d="M555,188.06c-6.31,6.29-13.13,12.4-18,19.94c-9.52,14.71,1.64,22.46,14.62,29.2
		c9.6,4.98,23.58,11.9,34.47,13.21c10.78,1.29,21.75-8.99,27.86-16.83c4.15-5.32,5.98-10.58,8.14-16.79
		c4.19-12.07,16.1-17.78,16.2-31.35"/>
	<path class="st0" d="M635.42,180.9c3.15,4.3,7.89,8.9,9.65,13.26c2.67,6.62-1.1,11.01-4.77,16.29
		c-8.49,12.19-15.15,34.64-30.37,39.99c-6.15,2.16-11.52-0.22-17.76,0.22"/>
</g>
<g>
	<path class="st0" d="M444.51,141.21c-6.55-0.98-9.51-1-16.11-0.4c-10.95,1-25.14,6.12-31.97,15.79"/>
	<path class="st0" d="M396.27,156.82c-7.56-3.02-16.85-3.09-26.12-1.98c-7.78,0.93-15.69,2.29-22.84,5.61
		c-4.71,2.19-9.76,5.86-11.83,10.94"/>
	<path class="st0" d="M396.89,157.64c4.63,9.52,11.27,19.47,17.71,28.26c4.25,5.8,8.93,11.47,12.66,17.63
		c1.98,3.28,3.67,6.46,5.3,12.37"/>
	<path class="st0" d="M431.59,216.63c-9.95-1.3-19.41-3.63-29.52-1.81c-10.81,1.94-24.71,13.12-28.5,23.52"/>
	<path class="st0" d="M431.47,216.62c0.95-0.11,1.04-1.04,1.87-1.9c3.58-3.7,7.23-6.54,11.89-8.89c10.75-5.43,32.4-11.07,43.79-4.85
		"/>
	<path class="st0" d="M445.23,141.31c2.69,1.85,6.93,7.08,9.4,9.81c9.44,10.41,15.32,20.26,19.34,24.92
		c6.88,8,11.56,15.1,15.92,24.81"/>
	<path class="st0" d="M442.95,142.14"/>
	<path class="st0" d="M334.42,171.98c0.66,2.9,2.74,5.53,4.41,7.91c6.11,8.72,10.34,17.8,16.13,26.74
		c4.25,6.55,9.25,13.57,12.39,20.77c1.77,4.05,4.86,7.32,6.13,10.56"/>
	<path class="st0" d="M432.73,217.28c2.84-0.39,6.88-4.64,9.88-5.9c4.95-2.08,10.57-3.12,15.79-4.38c9.19-2.22,18.9-2.85,28.19-0.96
		"/>
	<path class="st0" d="M482.95,199.64c1.95,1.22,2.68,3.78,4.11,5.73"/>
	<path class="st0" d="M433.85,218.91c14.07-7.5,31.72-10.2,47.27-7.99"/>
	<path class="st0" d="M479.96,206.09c1.44,1.67,2.51,3.28,3.46,5.04c-1.02-0.26-2.05-0.46-3.1-0.57"/>
	<path class="st0" d="M432.61,218.12c-10.8-1.82-21.9-2.78-32.61,0.29c-11.72,3.36-20.96,15.24-25.48,26.31"/>
	<path class="st0" d="M335.1,175.02c-0.03,1.23-1.13,1.73-1.06,3.01c0.11,1.82,2.8,5.59,3.62,7.3c2.47,5.15,4.74,8.02,7.25,12.89
		c3.24,6.28,7.34,12.5,11.02,18.55c3.31,5.45,6.99,11.09,9.81,16.91c2.2,4.54,4.02,7.97,7.55,11.86"/>
	<path class="st0" d="M433.3,219.33c-9.04-2.74-21.8-0.74-30.26,2.47c-10.51,3.98-18.53,11.6-21.83,22.4"/>
	<path class="st0" d="M376.18,240.67c1.86,1.47,1.92,3.78,4.36,4.78"/>
	<path class="st0" d="M423.46,208.95c0,0-34.69-8.69-48.44,13.75"/>
	<path class="st0" d="M415.53,200.39c0,0-31.96-6.41-45.63,13.25"/>
	<path class="st0" d="M411.25,192.67c0,0-36.19-4.57-46.47,12.77"/>
	<path class="st0" d="M392.14,162.62c0,0-30.35-4.13-47.42,10.79"/>
	<path class="st0" d="M396.42,169.73c0,0-33.6-2.83-46.26,12.18"/>
	<path class="st0" d="M400.76,177.33c0,0-35.73-0.83-44.89,12"/>
	<path class="st0" d="M404.77,184.65c0,0-30.03-3.84-44.25,12.71"/>
	<path class="st0" d="M404,159.56c0,0,9.08-13.2,34.95-13.55"/>
	<path class="st0" d="M407.89,166.2c0,0,9.56-14.55,38.23-14.65"/>
	<path class="st0" d="M413.94,173.71c0,0,10.03-15.78,39.32-15.23"/>
	<path class="st0" d="M419.44,181.33c0,0,10.86-18.49,39.82-14.58"/>
	<path class="st0" d="M476.38,189.83c-1.85-0.25-23.05-3.77-41.39,13.93"/>
	<path class="st0" d="M469.44,181.62c-3.21-0.19-25.42-2.13-39.08,14.5"/>
	<path class="st0" d="M424.42,188.39c2.53-3.08,11.03-16.77,39.27-14.38"/>
</g>
<path class="st0" d="M366.34,376.6c-10.05,5.68-16.31,7.87-26.87,12.54c-13.29,5.87-26.42,11.98-39.23,18.76"/>
<path class="st0" d="M302.71,407.08c7.02-0.43,10.04,11.08,8.27,17.03"/>
<path class="st0" d="M310.04,427.31c6.49-2.52,12.43-4.97,17.67-7.57c9.09-4.52,18.04-7.63,27.19-12.21
	c8.24-4.12,16.39-8.25,24.55-12.53c3.08-1.62,6.68-3.55,9.85-4.95c0.78-0.34,4.77-2.56,2.88-2.16"/>
<path class="st0" d="M314.84,391.68c-2.38,3.25-11.07,12.32-15.15,15.87"/>
<path class="st0" d="M390.64,369.79c-14.5,5.13-37.12,10.54-55.11,15.11c-7.37,1.87-15.31,3.93-22.47,6.45
	c-1.94,0.68-3.81,1.64-5.74,2.32c-1.17,0.42-3.08,1.66-2.4,0.71"/>
<path class="st0" d="M301.89,376.82c3.8,4.63,4.63,9.26,4.13,13.72"/>
<path class="st0" d="M297.18,376.53c4.1,0.14,11.76-3.22,16.36-4.13c10.15-2.02,17.85-5.27,29.4-7.64c15.35-3.15,32-8.59,48-12.74"
	/>
<path class="st0" d="M296.63,376.35c2.34-2.88,7.55-6.59,10.14-8.35c11.97-8.11,21.34-17.9,34.03-25.01"/>
<path class="st0" d="M340.81,343c9.94-1.77,19.37-6.06,29.15-8.51c10.53-2.64,25.13-7.37,35.79-10.03"/>
<path class="st0" d="M309.95,424.54c0,0,23.37-10.83,38.53-17.42c15.31-6.65,43.33-22.38,43.33-22.38"/>
<path class="st0" d="M310.2,424.88c-0.23-0.14,0.61-3.08-0.59,1.93"/>
<path class="st0" d="M301.42,299.41c25.2,8.16,44.24,14.32,69.8,20.85"/>
<path class="st0" d="M299.79,299.41c-1.25,0.73-2.36,1.69-3.44,2.69c-6.2,5.7-12.52,11.51-18.61,17.34
	c-6.44,6.17-15.07,14.16-20.55,21.12"/>
<path class="st0" d="M257.19,340.56c7.7,1.15,18.22,5.36,25.74,7.79c6.6,2.13,11.48,4.36,17.95,6.71c4.55,1.65,9.78,3.04,13.96,5.26
	"/>
<path class="st0" d="M371.21,320.8c-2.54,3.45-4.79,5.86-7.54,9.03c-2.79,3.21-4.89,6.05-7.73,8.96"/>
<path class="st0" d="M258.64,339.84c1.99,1.19,5.88,5.93,3.99,8.88l45.68,17.4"/>
<path class="st0" d="M262.08,345.82c-1.45,1.99-2.73,3.31-3.61,5.04c15.68,5.75,31.42,10.93,46.4,17.99"/>
<path class="st0" d="M371.57,320.44c3.3,1.03,1.64,7.03,0.91,9.61"/>
<path class="st0" d="M372.48,330.59c-1.28,1.49-1.89,2.54-3.21,4.01"/>
<path class="st0" d="M370.13,322.98c-0.07,2.34-0.57,4.66-1.27,6.89"/>
<path class="st0" d="M368.86,329.87c-1.62,1.88-2.93,3.78-4.52,5.68"/>
<path class="st0" d="M306.02,388.07c-1.66,2.47-3.6,4.56-4.94,7.09c1.7,0.02,3.32-0.44,4.94-0.97"/>
<path class="st0" d="M305.03,390.87c7.94-3.02,15.65-5.66,23.86-8.02c13.35-3.84,24.89-6.05,38.34-9.51
	c10.37-2.67,18.27-6.45,23.7-7.41"/>
<path class="st0" d="M343.08,347.78c-1.33,1.67-18.19,12.87-17.17,13.71"/>
<path class="st0" d="M325.81,361.75c2.87-0.54,7.87-1.76,10.81-2.96"/>
<path class="st0" d="M353.33,344.73c-5.12,4.6-11.27,8.88-16.87,14.38"/>
<path class="st0" d="M343.07,348.05c5.18-2.11,8.95-2.87,10.12-3.31"/>
<path class="st0" d="M338.09,318.29c3.05,1.21,6.29,1.46,8.92,3.46"/>
<path class="st0" d="M347.61,321.98c-1.37,0.78-4.48,0.62-6.22,0.71c-0.14,0.2,0.1,0.09,0.19,0.22"/>
<path class="st0" d="M341.04,323.15c0.12,0.58,0.76,2.09,1.19,2.75c0.39,0.6,0.14,0.88,0.68,1.35"/>
<path class="st0" d="M332.36,324.09c3.36,1.22,7.28,2.54,10.61,3.58"/>
<path class="st0" d="M329.41,327.59c1.7,2.33,5.17,4.19,6.68,7.21"/>
<path class="st0" d="M323.91,333.77c4.04,0.46,8.14,0.66,12.17,1.03"/>
<path class="st0" d="M332.23,330.94c-0.68,0.83-1.95,1.97-2.64,2.96"/>
<path class="st0" d="M319.8,338.56c2.1,0.91,4.13,1.57,6.3,2.27c1.13,0.36,2.41,0.43,3.34,1.04"/>
<path class="st0" d="M331.84,339.33c-1.7,2.06-3.67,4.06-4.98,5.43"/>
<path class="st0" d="M314.75,344.43c3.69,0.93,6.17,1.93,9.48,3.52"/>
<path class="st0" d="M319.39,346.9c-0.46,1-3.09,2.48-3.6,3.77"/>
<path class="st0" d="M310.17,348.65c3.88,1.65,6.25,2.05,9.84,3.67"/>
<path class="st0" d="M308.73,309.74c-4.43,4.41-8.98,8.65-13.32,13.17c-3.77,3.92-8.3,6.85-12.18,10.63"/>
<path class="st0" d="M318.33,315.01c-2.98,5.14-8.95,9.05-13.28,13c-3.33,3.04-6.57,6.36-9.41,9.87"/>
<g>
	<path class="st0" d="M549,451.92c-0.75,1.96-0.29,0.03,0.09-1.05c1.43-4.1,3.74-7.45,6.58-10.71
		c10.76-12.36,26.92-20.47,42.2-25.75c17.2-5.94,34.97-8.84,51.15-17.75c10.77-5.93,28.45-17.25,33.4-37.13"/>
	<path class="st0" d="M533.07,447.33c0.43-20.41,20.58-34.28,35.94-43.81c26.09-16.18,71.96-14.08,83.91-48.34"/>
	<path class="st0" d="M673.54,341.27c-7.49,4.47-6.23,25.33,6.03,19.73c12.62-5.77,4.19-30.18-7.46-18.43"/>
	<path class="st0" d="M654.25,333.16c-8.91,1.21-15.77,12.6-9.41,20.52"/>
	<path class="st0" d="M644.83,353.68c2.9-0.24,23.29,5.06,28.24,7.96"/>
	<path class="st0" d="M654.25,333.16c5.75-0.29,19.84,2.66,24.86,6.03"/>
	<path class="st0" d="M673.99,341.55c-3.39,2.66-7.46,11.94-2.98,15.56c5.38,4.34,10.05,0.25,11.13-4
		c1.55-6.08-3.41-12.68-8.03-6.15c-1.35,1.91-2.66,7.06-0.11,8.66c2.41,1.51,4.68-1.11,5.08-3.26c1.44-7.8-6.23,0.52-1.72-0.05"/>
	<path class="st0" d="M653.06,336.5c-0.96,0.41-2.24,0.98-2.91,1.68"/>
	<path class="st0" d="M646.78,341.43c-0.33,0.79-0.55,1.63-0.67,2.46"/>
	<path class="st0" d="M645.33,348.15c0,0.62,0.12,1.26,0.34,1.79"/>
	<path class="st0" d="M671.65,339.31c-1.28,0.5-2.62,1.61-3.02,3.02"/>
	<path class="st0" d="M666.27,346.25c-0.53,0.63-0.85,1.49-0.9,2.35"/>
	<path class="st0" d="M665.07,353.3c-0.06,0.71,0,1.29,0.32,1.88"/>
	<path class="st0" d="M650.03,343.67c3.41,1.76,7.37,2.48,11.09,3.25"/>
	<path class="st0" d="M654.51,359.13c-0.02,0.68-0.34,1.63-0.78,2.35"/>
	<path class="st0" d="M651.15,364.85c0,0.65-0.33,1.19-0.9,1.57"/>
	<path class="st0" d="M647.57,370.11c-0.41,0.35-0.84,0.74-1.23,1.12"/>
	<path class="st0" d="M643.65,374.59c-0.43,0.3-0.85,0.64-1.23,1.01"/>
	<path class="st0" d="M638.83,378.62c-0.28,0.31-0.58,0.61-0.9,0.9"/>
	<path class="st0" d="M634.12,381.43c-0.48,0.35-0.96,0.69-1.46,1.01"/>
	<path class="st0" d="M628.07,384.56c-0.73,0.08-1.45,0.4-2.02,0.9"/>
	<path class="st0" d="M620.91,387.47c-0.52,0.22-1.05,0.44-1.57,0.67"/>
	<path class="st0" d="M614.74,389.83c-0.64,0-1.35,0.12-2.02,0.34"/>
	<path class="st0" d="M607.8,391.73c-0.36,0.22-0.74,0.41-1.12,0.56"/>
	<path class="st0" d="M601.3,393.75c-0.62,0.25-1.26,0.47-1.91,0.67"/>
	<path class="st0" d="M594.24,395.99c-0.54,0.12-1.07,0.31-1.57,0.56"/>
	<path class="st0" d="M588.08,398.12c-0.6,0.06-1.18,0.3-1.68,0.67"/>
	<path class="st0" d="M580.13,401.25c-0.67,0.14-1.35,0.46-1.9,0.9"/>
	<path class="st0" d="M572.85,404.5c-0.56,0.24-1.18,0.63-1.57,1.01"/>
	<path class="st0" d="M566.91,408.2c-0.43-0.17-0.78,0.01-1.01,0.45"/>
	<path class="st0" d="M562.21,411.67c-0.4-0.02-0.86,0.32-1.12,0.78"/>
	<path class="st0" d="M556.49,415.48c-0.42,0.15-0.77,0.42-1.01,0.79"/>
	<path class="st0" d="M551.11,420.08c-0.62,0.13-1.15,0.54-1.45,1.12"/>
	<path class="st0" d="M545.74,424.78c-0.5,0.22-0.89,0.61-1.12,1.12"/>
	<path class="st0" d="M541.93,429.37c-0.25,0.43-0.57,0.86-0.89,1.23"/>
	<path class="st0" d="M538.46,435.08c-0.34,0.37-0.6,0.78-0.79,1.23"/>
	<path class="st0" d="M536.44,440.91c0.01,0.47-0.11,0.93-0.34,1.34"/>
	<path class="st0" d="M534.98,446.96c0,0.11,0,0.22,0,0.34"/>
	<path class="st0" d="M677.03,364.85c-0.57,0.85-1.06,1.75-1.46,2.69"/>
	<path class="st0" d="M673.89,371.12c-0.62,0.55-1.15,1.19-1.57,1.91"/>
	<path class="st0" d="M669.08,377.06c-0.51,0.38-0.99,0.9-1.35,1.46"/>
	<path class="st0" d="M664.03,382.21c-0.21,0.56-0.8,1.18-1.46,1.57"/>
	<path class="st0" d="M659.11,386.8c-0.63,0.1-1.19,0.53-1.57,1.12"/>
	<path class="st0" d="M653.39,390.16c-0.45,0.41-0.9,0.82-1.34,1.23"/>
	<path class="st0" d="M647.34,393.86c-0.51,0.09-1,0.24-1.46,0.45"/>
	<path class="st0" d="M641.63,396.89c-0.77,0.18-1.7,0.57-2.46,1.01"/>
	<path class="st0" d="M635.02,399.57c-0.58,0.33-1.18,0.63-1.79,0.9"/>
	<path class="st0" d="M628.86,401.93c-0.51,0.21-1.04,0.4-1.57,0.56"/>
	<path class="st0" d="M622.14,404.05c-0.42,0.07-0.83,0.18-1.23,0.34"/>
	<path class="st0" d="M616.2,405.96c-0.6,0.17-1.21,0.36-1.79,0.56"/>
	<path class="st0" d="M609.03,407.75c-0.68,0.3-1.4,0.52-2.13,0.67"/>
	<path class="st0" d="M602.31,409.88c-0.84,0.33-1.71,0.63-2.58,0.9"/>
	<path class="st0" d="M595.7,412.12c-0.74,0.2-1.5,0.43-2.24,0.67"/>
	<path class="st0" d="M589.09,414.25c-0.59,0.25-1.19,0.48-1.79,0.67"/>
	<path class="st0" d="M582.93,416.83c-0.65,0.04-1.42,0.4-2.02,0.9"/>
	<path class="st0" d="M576.88,419.74c-0.47,0.34-1,0.61-1.57,0.78"/>
	<path class="st0" d="M571.84,422.87c-0.66,0.32-1.3,0.7-1.91,1.12"/>
	<path class="st0" d="M566.58,426.57c-0.66,0.21-1.3,0.61-1.79,1.12"/>
	<path class="st0" d="M561.31,429.93c-0.39,0.18-0.79,0.46-1.12,0.78"/>
	<path class="st0" d="M557.16,433.74c-0.51,0.11-0.9,0.47-1.12,1.01"/>
	<path class="st0" d="M553.8,437.66c-0.14,0.3-0.37,0.53-0.67,0.67"/>
	<path class="st0" d="M550.89,441.13c0.08,0.15,0.08,0.3,0,0.45"/>
	<path class="st0" d="M548.65,444.5c0.03,0.25-0.05,0.48-0.23,0.67"/>
	<path class="st0" d="M546.75,447.97c0,0.19,0,0.37,0,0.56"/>
	<path class="st0" d="M653.28,364.06c5.07,3.12,12.13,3.01,17.37,6.05"/>
	<path class="st0" d="M645.33,376.72c4.34,1.73,8.36,4.34,12.43,6.61"/>
	<path class="st0" d="M633.68,385.35c1.85,1.93,5.25,6.63,7.95,7.28"/>
	<path class="st0" d="M620.01,391.84c0.4,2.67,4.43,4.14,4.03,7.06"/>
	<path class="st0" d="M605.78,396.33c1.08,0.62,3.07,6.63,3.25,8.4"/>
	<path class="st0" d="M590.88,400.47c-0.16,1.95,1.3,5.43,2.46,7.06"/>
	<path class="st0" d="M577.1,406.07c1.92,0.36,2.58,5.03,3.81,6.61"/>
	<path class="st0" d="M564.22,413.46c2.22,0.72,2.91,5.32,4.93,7.06"/>
	<path class="st0" d="M555.71,420.41c1.86,1.83,3.28,4.19,5.04,6.16"/>
	<path class="st0" d="M545.62,428.92c2.48,0.04,6.03,3.5,7.73,5.38"/>
	<path class="st0" d="M541.03,438.78c2.14,0.57,3.67,2.34,5.83,2.91"/>
</g>
<g>
	<path class="st0" d="M565.53,462.95c3.14-4.38,6.8-8.34,11.02-11.23c15.96-10.94,35.66-14.95,53.29-15.88
		c19.85-1.05,39.02,1.71,59.06-3.24c13.34-3.29,35.88-10.59,49.06-32.51"/>
	<path class="st0" d="M548.52,453.77c8.83-24.14,37.12-35,56.58-40.96c33.05-10.13,78.6,8.41,104.79-28.19"/>
	<path class="st0" d="M736.08,375.87c-9.25,2.72-16.32,27.36-1.62,24.98c15.14-2.46,17.2-34.43,0.58-24.52"/>
	<path class="st0" d="M720.28,358.86c-9.51-1.68-21.14,9.48-17.96,21.13"/>
	<path class="st0" d="M702.32,379.99c3.03,0.72,21.49,14.17,25.3,19.36"/>
	<path class="st0" d="M720.28,358.86c5.94,1.66,18.98,10.1,22.68,15.88"/>
	<path class="st0" d="M736.82,375.75c-4.52,1.97-12.67,13.14-9.21,18.68c2.91,4.66,9.4,2.48,12.42-2.07
		c3.58-5.39,2.05-16.3-5.3-10.13c-2.15,1.8-5.6,7.47-3.67,10.26c1.82,2.64,5.19,0.31,6.48-2.11c4.67-8.79-6.52-1.56-1.72-0.67"/>
	<path class="st0" d="M717.71,362.42c-1.13,0.15-2.67,0.38-3.64,0.98"/>
	<path class="st0" d="M709.33,366.1c-0.65,0.82-1.23,1.74-1.69,2.7"/>
	<path class="st0" d="M705.09,373.59c-0.25,0.74-0.39,1.54-0.4,2.25"/>
	<path class="st0" d="M735.37,372.26c-1.5,0.15-3.31,1-4.3,2.54"/>
	<path class="st0" d="M727.08,378.64c-0.79,0.56-1.48,1.47-1.88,2.49"/>
	<path class="st0" d="M722.51,387.07c0,0.59-0.19,1.63-0.44,2.38"/>
	<path class="st0" d="M711.7,369.9c2.72,3.29,6.43,5.53,9.89,7.75"/>
	<path class="st0" d="M709.87,389.86c-0.3,0.8-1.02,1.82-1.76,2.53"/>
	<path class="st0" d="M704.48,395.31c-0.63,0.77-1.12,1.33-1.91,1.73"/>
	<path class="st0" d="M698.74,400.28c-0.56,0.42-1.56,0.8-2.12,1.12"/>
	<path class="st0" d="M692.52,404.46c-0.56,0.21-1.12,0.47-1.66,0.77"/>
	<path class="st0" d="M686.29,407.42c-0.41,0.27-1.1,0.4-1.54,0.63"/>
	<path class="st0" d="M680.08,409.27c-0.63,0.25-1.26,0.48-1.89,0.69"/>
	<path class="st0" d="M672.66,410.88c-1.01,0.04-1.42,0.25-2.41,0.36"/>
	<path class="st0" d="M664.66,411.83c-0.62,0.08-1.69,0.17-2.31,0.26"/>
	<path class="st0" d="M657.17,412.32c-0.64-0.23-1.58-0.16-2.34-0.14"/>
	<path class="st0" d="M649.48,412.39c-0.46,0.14-1.65,0.03-2.1,0.07"/>
	<path class="st0" d="M641.8,412.46c-0.73,0.08-1.47,0.12-2.21,0.13"/>
	<path class="st0" d="M633.73,412.65c-0.6-0.04-1.21,0-1.82,0.12"/>
	<path class="st0" d="M626.62,413.03c-0.63-0.14-1.31-0.06-1.98,0.21"/>
	<path class="st0" d="M617.29,413.99c-0.74-0.07-1.55,0.08-2.3,0.4"/>
	<path class="st0" d="M608.58,415.31c-0.67,0.08-1.45,0.33-2,0.65"/>
	<path class="st0" d="M601.05,417.63c-0.37-0.35-0.8-0.26-1.21,0.18"/>
	<path class="st0" d="M594.86,420.12c-0.4-0.17-1,0.08-1.45,0.54"/>
	<path class="st0" d="M587.52,422.65c-0.49,0.03-0.96,0.23-1.34,0.58"/>
	<path class="st0" d="M580.19,426.24c-0.68-0.07-1.38,0.24-1.94,0.82"/>
	<path class="st0" d="M572.81,429.96c-0.6,0.08-1.15,0.42-1.59,0.94"/>
	<path class="st0" d="M567.07,434.09c-0.43,0.42-0.92,0.82-1.41,1.15"/>
	<path class="st0" d="M561.21,439.68c-0.5,0.32-0.93,0.72-1.3,1.19"/>
	<path class="st0" d="M556.77,445.91c-0.18,0.56-0.49,1.07-0.89,1.48"/>
	<path class="st0" d="M552.81,452.6c-0.04,0.13-0.09,0.26-0.14,0.4"/>
	<path class="st0" d="M730.31,404.53c-0.92,0.81-1.8,1.71-2.58,2.69"/>
	<path class="st0" d="M724.56,410.9c-0.85,0.43-1.65,1.01-2.37,1.72"/>
	<path class="st0" d="M717.24,416.28c-0.67,0.28-1.37,0.73-1.96,1.26"/>
	<path class="st0" d="M710.02,420.66c-0.45,0.59-1.3,1.13-2.12,1.36"/>
	<path class="st0" d="M703.14,424.4c-0.68-0.1-1.43,0.21-2.05,0.79"/>
	<path class="st0" d="M695.98,426.4c-0.62,0.33-1.25,0.66-1.87,1"/>
	<path class="st0" d="M688.34,428.69c-0.54-0.08-1.1-0.07-1.66,0.02"/>
	<path class="st0" d="M681.32,430.29c-0.86-0.05-1.96,0.08-2.91,0.34"/>
	<path class="st0" d="M673.52,431.18c-0.72,0.19-1.46,0.34-2.18,0.44"/>
	<path class="st0" d="M666.32,431.82c-0.6,0.07-1.21,0.11-1.82,0.12"/>
	<path class="st0" d="M658.64,432.01c-0.46-0.06-0.92-0.07-1.38-0.03"/>
	<path class="st0" d="M651.85,432.2c-0.68-0.01-1.38,0-2.04,0.04"/>
	<path class="st0" d="M643.86,431.82c-0.82,0.12-1.63,0.13-2.43,0.06"/>
	<path class="st0" d="M636.18,432.01c-0.98,0.09-1.99,0.15-2.98,0.17"/>
	<path class="st0" d="M628.57,432.36c-0.83-0.02-1.7-0.02-2.54,0.02"/>
	<path class="st0" d="M621.01,432.58c-0.7,0.09-1.4,0.15-2.09,0.17"/>
	<path class="st0" d="M613.72,433.5c-0.67-0.18-1.61-0.03-2.41,0.36"/>
	<path class="st0" d="M606.4,434.85c-0.62,0.25-1.27,0.38-1.91,0.39"/>
	<path class="st0" d="M600.01,436.82c-0.8,0.15-1.6,0.38-2.39,0.67"/>
	<path class="st0" d="M593.16,439.38c-0.75,0.01-1.56,0.27-2.27,0.71"/>
	<path class="st0" d="M586.45,441.54c-0.47,0.07-0.99,0.26-1.46,0.54"/>
	<path class="st0" d="M580.69,444.62c-0.56-0.05-1.11,0.24-1.54,0.81"/>
	<path class="st0" d="M575.68,448.11c-0.26,0.31-0.59,0.51-0.96,0.57"/>
	<path class="st0" d="M571.3,451.22c0.02,0.21-0.04,0.38-0.18,0.53"/>
	<path class="st0" d="M567.65,454.44c-0.08,0.31-0.25,0.55-0.5,0.72"/>
	<path class="st0" d="M564.3,457.91c-0.08,0.22-0.16,0.44-0.23,0.67"/>
	<path class="st0" d="M707.21,395.94c3.85,5.49,10.43,7.18,14.48,12.63"/>
	<path class="st0" d="M693.35,407.58c3.68,3.58,6.67,8.09,9.87,12.21"/>
	<path class="st0" d="M678.01,413.78c1.08,2.94,2.54,10.42,5.01,12.14"/>
	<path class="st0" d="M661.51,416.73c-0.7,3.32,1.55,8.86,0.89,12.5"/>
	<path class="st0" d="M645.27,417.09c0.84,1.11,0.38,8.96-0.17,11.14"/>
	<path class="st0" d="M628.49,416.81c-0.97,2.26-0.56,9.31-0.05,11.64"/>
	<path class="st0" d="M612.24,418.66c1.79,1.1,0.93,8.8,1.53,11.12"/>
	<path class="st0" d="M596.68,422.94c1.95,1.64,1.32,7.38,2.65,10.14"/>
	<path class="st0" d="M584.7,428.24c1.13,2.83,1.6,6.13,2.57,9.1"/>
	<path class="st0" d="M570.99,434.85c2.49,0.92,4.66,6.26,5.61,9.1"/>
	<path class="st0" d="M562.29,444.98c1.94,1.43,2.75,4.07,4.7,5.5"/>
</g>
<g>
	<path class="st0" d="M123.42,428.04c0.31,6.43-11.72,13.09-13.77,3.19c-0.61-2.98,0.79-7.08,3.48-8.62c1.59-0.91,7-1.88,7.6,1.79"
		/>
	<path class="st0" d="M120.86,424.4c-0.31-3.63,0.25-8.12,0.76-11.7c0.35-2.48,2.48-13.86,2.49-16.28"/>
	<path class="st0" d="M123.13,429.45c0.55-1.66,0.45-6.06,0.48-6.98c0.15-3.73,0.07-6.29,0.7-10.51c0.58-3.9,1.5-9.28,2.23-11.74"/>
	<path class="st0" d="M126.81,400.04c3.2,0.15,4.08,2.78,4.48,3.77c0.89,2.18-0.53,4.73,0.06,7.01c0.79,3.03,3.6,4.56,6.59,4.9
		c-0.06,0.03,1.12-0.33,1.06-0.32"/>
	<path class="st0" d="M139.28,415.38c-1.21-1.33-1.95-3.34-2.02-5.05c-0.1-2.43,0.9-4.62,0.8-7.03c-0.11-2.48-0.95-4.69-3.18-6.02
		c-1.27-0.76-2.87-1.39-4.3-1.64c-1.18-0.21-4.88-0.05-6.54,0.61"/>
</g>
<g>
	<path class="st0" d="M105.22,402.03c3.55,6.84-6.21,20.1-13.38,10.35c-2.16-2.93-2.68-8.09-0.52-11.12
		c1.27-1.79,6.68-5.54,9.17-1.86"/>
	<path class="st0" d="M100.61,399.35c-2.15-3.79-3.79-8.96-5.02-13.11c-0.86-2.87-4.23-16.32-5.43-18.95"/>
	<path class="st0" d="M105.61,403.71c-0.23-2.08-3.14-6.66-3.56-7.69c-1.7-4.13-2.56-6.01-4.03-10.68
		c-1.04-3.3-3.15-11.45-3.71-15.35"/>
	<path class="st0" d="M94.5,369.8c3.55-1.43,6.23,1.06,7.16,1.93c2.05,1.93,1.79,5.41,3.58,7.6c2.37,2.91,6.2,3.16,9.62,2.03
		c-0.06,0.06,1.06-0.92,0.99-0.88"/>
	<path class="st0" d="M116.14,380.34c-1.98-0.84-3.79-2.66-4.72-4.49c-1.33-2.59-1.33-5.48-2.65-8.05
		c-1.36-2.64-3.38-4.62-6.47-4.96c-1.76-0.2-3.81-0.08-5.5,0.36c-1.39,0.36-5.34,2.39-6.81,3.93"/>
</g>
<path class="st0" d="M352.76,409.17c0,0,50.17-2.88,58.99,33.06"/>
<path class="st0" d="M415.03,441.25c0,0-2.1-30.5-35.57-46.25"/>
<path class="st0" d="M332.29,418.03c0,0,68.87-11.06,76.95,25.15"/>
<g>
	<path class="st0" d="M654.52,450.36c4.87,0.52,6.91,1.44,11.86,1.99c2.99,0.33,5.98,0.53,8.98,0.74"/>
	<path class="st0" d="M654.23,450.51c-0.19,2.23-0.71,4.4-1.28,6.56c-0.68,2.62-1.52,7.82-2.42,10.38c-0.9,2.56-2.96,4.37-5.54,3.48
		c-3.33-1.16-3.48-5.75,0.35-6.19c1.29-0.15,3.59,0.15,4.27,1.45c0.41,0.79,0.47,1.7,0.22,2.49"/>
	<path class="st0" d="M675.8,453.06c-0.41,2.56-0.68,5.14-1.05,7.7c-0.41,2.81-1.14,8.43-2.06,11.12c-0.62,1.81-2.16,3.09-4.06,3.42
		c-2.91,0.49-4.75-3.15-2.58-5.21c1.35-1.28,3.79-1.35,5.32-0.35c1.39,0.91,1.24,2.18,0.56,3.5"/>
	<path class="st0" d="M653.73,455.5c-0.33-0.1,0-0.03,0.16-0.04c0.54-0.03,1.1,0.06,1.64,0.12c1.5,0.16,3.01,0.33,4.5,0.58
		c3.08,0.52,3.21,0.65,6.32,0.92c1.87,0.17,3.73,0.19,5.6,0.32c0.61,0.04,2.58-0.03,2.82,0.49"/>
</g>
<path class="st0" d="M528.59,446.63c-0.4-21.79,15.15-39.08,29.37-46.41c10.24-5.28,21.06-10.2,23.69-22.5
	c0.2-0.93,1.32-8.37-3.02-10.97c-4.51-2.71-9.99,0.48-10.42,4.94"/>
<path class="st0" d="M567.39,371.97c-4.99-3.92-1.27-12.29,1.78-15.63c7.72-8.46,22.44-10.05,31.41-3.15
	c11.44,8.79,11.95,25.67,0.67,35.08c-2.18,1.82-4.65,3.27-6.85,5.11"/>
<path class="st0" d="M567.94,371.83c-0.78-6.87,7.72-11.77,13.54-12.17c8.4-0.57,13.97,4.84,14.82,13
	c1.19,11.35-8.74,18.8-17.39,24.13c-6.45,3.98-20.11,12.64-29.76,20.98"/>
<path class="st0" d="M608.66,315.09c-28.57,1.19-49.23,23.66-62.62,47.29"/>
<path class="st0" d="M644.02,311.62c20.11,0.09,46.2-1.89,64.98-9.16c12.26-4.74,20-13.34,21.17-25.5
	c2.71-28.29-44.84-28.84-43.02,2.84c0.74,12.86,18.77,12.64,25.95,4.39c6.73-7.74-5.18-15.09-9.04-8.96"/>
<path class="st0" d="M696.78,290.34c-8.12,10.89-23.35,11.87-35.57,13.74"/>
<path class="st0" d="M599.39,309.1c-14.68,1.74-34.93,14.13-47.14,34.39"/>
<path class="st0" d="M576.32,453.14c5.82,4.78,3.94,14.43-3.94,15.52"/>
<path class="st0" d="M583.61,447.77c3.81,3.3,6.06,6.38,6.25,11.64c0.11,2.97-0.8,6.54-2.97,8.91"/>
<path class="st0" d="M588.03,451.37c5.69-0.19,7.1-4.48,7.08-8.2"/>
<path class="st0" d="M589.82,457.98c5.19-0.52,9.73-5.26,11.48-9.87c0.52-1.37,1.35-7.39-0.04-6.86"/>
<path class="st0" d="M596.33,456.93c0.01-0.21-0.18-0.37-0.07-0.63c3.55,2.77,4.83,7.78,4.79,12.07"/>
<path class="st0" d="M600.73,449.58c4.93,1.75,8.13,7.1,9.61,11.83c1.91,6.09,0.42,10.51-2.33,16.05"/>
<path class="st0" d="M603.04,441.61c3.81-0.4,9.19,4.45,11.48,7.07c2.88,3.29,4.72,7.25,5.15,11.59c1,10.11-2.34,20.79-11.77,25.65"
	/>
<g>
	<path class="st0" d="M688.28,443.28c1.52,2.32,4.39,3.77,6.11,6.15c1.9,2.62,6.5,7.82,4.79,11.5c-1.5,3.22-5.93,1.78-6.6-1.24
		c-0.91-4.06,5.16-6.14,6.83-2.25"/>
	<path class="st0" d="M688.07,443.08c0.49-2.78,6.09-2.67,8.12-2.38c3.76,0.55,5.1,2.56,7.38,0.21"/>
	<path class="st0" d="M691.11,446.02c1.7-4.81,8.65-0.8,11.83-4.89"/>
</g>
<path class="st0" d="M623.66,436.73c0.28-0.12,0.59-0.2,0.88-0.23c-2.12,2.3-2.59,5.68,0.5,7.43c1.58,0.89,3.73,1.18,5.3,0.12
	c0.77-0.52,2.11-2.16,1.1-2.9"/>
<path class="st0" d="M631.38,444.17c4.87,3.61,13.36-3.08,7.46-7.84"/>
<path class="st0" d="M652.14,438.28c-0.17-1.01-2.62,0.32-3.09,0.95c-1.84,2.43,0.57,4.69,3.16,4.43c4.15-0.41,2.77-7.07-1.48-5.24"
	/>
<path class="st0" d="M625.47,447.73c-2.01-1.31-3.6,3.17-0.82,3.88c2.81,0.72,3.95-4.11,0.33-3.88"/>
<path class="st0" d="M665.19,435.97c-2.04,7.05,13,7.45,9.87-0.35"/>
<path class="st0" d="M660.44,441.78c-0.95-0.47-1.6,0.97-0.57,1.54c1.72,0.97,3.07-2.11,0.71-1.75"/>
<path class="st0" d="M660.1,397.36c-4.99-0.51-5.21,6.35,0.05,5.54c4.57-0.7,3.8-6.16-0.99-5.12"/>
<path class="st0" d="M613.93,387.25c5.11-4.14,8.01-10.71,8.38-17.24c0.39-6.83-1.17-11.47-4.65-17.23
	c-5.04-8.36-11.89-22.63-2.33-34.23"/>
<path class="st0" d="M594.95,317.6c-2.11,1.11-3.29,5.36-3.59,7.81c-1.26,10.48,2.82,22.2,10.72,29.08"/>
<path class="st0" d="M655.1,311.41c-14.42,3.1-24.44,21.92-24.2,35.68c0.15,8.52,3.15,17.79,0.78,26.19
	c-0.75,2.67-1.78,5.4-3.98,7.21"/>
<path class="st0" d="M514.47,691.92c-4.7-22.98-3.82-52.37,9.16-72.51c22.22-34.47,73.26-31.59,106.16-50.47
	c7.62-4.37,17.22-11.92,18.59-21.35c1.48-10.25-10.14-17.61-18.53-20.45"/>
<path class="st0" d="M507.68,634.21c1.8-31.62,25.26-51.88,54.35-66.75c15.52-7.93,33.36-12.74,47.98-22.26
	c12.09-7.88,33.71-27.56,13.66-44.09c-6.51-5.37-19.3-4.23-20.1-4.11"/>
<path class="st0" d="M504.08,604.52c9.55-27.79,30.72-37.2,51.88-55.25c6.92-5.91,15.57-27.8,3.77-33.71
	c-13.36-6.7-23.05,18.39-9.52,13.91"/>
<path class="st0" d="M546.69,556.27c-18.68-5.42-22.03-25.44-16.4-37.17c11.76-24.48,49.04-34.66,65.67-14.27
	c8.39,10.29,8.29,23.34,3.25,32.22c-5.61,9.89-15.36,16.77-23.83,23.83"/>
<path class="st0" d="M590.39,549.01c1.67,0.76,3.25,2.46,3.13,4.45"/>
<path class="st0" d="M593.59,544.95c2.12,1.44,5.09,3.49,4.77,6.56"/>
<path class="st0" d="M597.5,540.49c3.78,1.82,6.91,3.66,6.33,8.28"/>
<path class="st0" d="M597.81,540.34c2.44,0.35,8.63,2.59,8.75-1.71c0.07-2.37-3.16-3.77-5.08-4.54"/>
<path class="st0" d="M601.25,534c2.61,0.9,9.14,1.68,9.92-2.03c0.77-3.63-4.82-5.24-7.42-4.14"/>
<path class="st0" d="M602.89,527.44c2.34-0.18,8.74,0,8.6-3.74c-0.15-4-6.53-3.69-9.07-3.37"/>
<path class="st0" d="M603.05,519.94c2.72-0.07,7.57-1.74,7.94-4.96c0.49-4.28-6.65-5-9.03-2.78"/>
<path class="st0" d="M601.4,512.04c1.31-1.6,6.21-2.28,5.62-5.54c-0.64-3.5-7.84-3.27-9.21-0.55"/>
<path class="st0" d="M596.64,505.71c3.07-1.39,8.31-3.32,6.81-7.92c-1.51-4.64-10.15-2.39-12.21,0.5"/>
<path class="st0" d="M590.62,498.76c2.13-2.08,3.87-6.1,1.55-8.71c-3.39-3.82-9.74-0.16-10.07,4.26"/>
<path class="st0" d="M580.62,494.77c1.49-3.51,0.63-7.56-2.87-9.42c-4.43-2.35-11.19,2.51-7.99,7.39"/>
<path class="st0" d="M569.37,493.6c0.99-2.87-2.73-6.97-5.28-7.77c-4.98-1.56-10.94,7.05-5.9,9.57"/>
<path class="st0" d="M557.64,495.63c-0.83-0.59-1.34-1.88-2.13-2.68c-1.5-1.54-4.22-3.21-6.4-3.43c-5.74-0.57-8.66,7.03-3.04,9.54"
	/>
<path class="st0" d="M546.08,500.17c-1.31-0.42-2.15-1.77-3.25-2.58c-1.92-1.4-4.22-2.07-6.55-1.3c-6.02,1.97-2.18,8.11,1.52,10.36"
	/>
<path class="st0" d="M537.64,507.43c-0.95,0.23-1.31-0.47-2.04-1.01c-2-1.49-3.91-2.57-6.53-2.2c-6.73,0.96-2.74,8.56,1.78,9.69"/>
<path class="st0" d="M531.78,515.56c-2.46-2.93-8.72-3.28-11.56-0.89c-5.09,4.27,3.11,9.53,7.42,9.02"/>
<path class="st0" d="M528.26,525.41c-2.91-2.62-7.4-2.14-10.15,0.62c-6.33,6.37,5.04,9.5,9.84,6.8"/>
<path class="st0" d="M526.78,534.55c-2.27-0.21-10.13,4.77-7.25,8.77c1.87,2.6,7.66,3.12,10.14,1.16"/>
<path class="st0" d="M529.83,544.87c-3.84-0.06-7.7,7.83-1.82,8.59c2.33,0.3,4.98-0.12,6.59-1.95"/>
<path class="st0" d="M535.61,551.27c-2.96,0.36-2.75,5.59-0.77,6.93c2.47,1.68,6.53,0.11,7.96-2.34c-0.15-0.15-0.16,0.07-0.39,0.1"
	/>
<path class="st0" d="M543.19,556.2c-0.11,0.86-0.21,1.77-0.16,2.66"/>
<path class="st0" d="M389.69,508.76c-0.06,0.98,0.26,1.93,0.68,2.81"/>
<path class="st0" d="M396.86,506.23c0.58,0.8,1.27,1.8,1.94,2.62"/>
<path class="st0" d="M404.33,497.89c1.19,0.82,2.64,1.17,3.59,2.33"/>
<path class="st0" d="M407.83,487.03c1.47,0.37,2.97,0.22,4.46,0.49"/>
<path class="st0" d="M407.05,476.16c1.66-0.15,3.34-0.33,4.95-0.78"/>
<path class="st0" d="M402.97,467.43c1.79-0.58,3.8-1.48,5.05-2.91"/>
<path class="st0" d="M387.26,452.88c-0.75,0.73-0.74,2.2-1.17,3.3"/>
<path class="st0" d="M373.19,453.17c-0.19,0.93,0.23,2.48,0.49,3.4"/>
<path class="st0" d="M360.48,457.73c0.3,1.07,1.16,2.58,1.84,3.49"/>
<path class="st0" d="M350.01,466.65c1.45,0.87,2.69,1.77,3.59,2.71"/>
<path class="st0" d="M345.06,477.81c1.39,0.22,2.8,0.69,4.17,1.07"/>
<path class="st0" d="M337.21,550.68c-0.04-3.73-5-8.74-7.27-11.44c-4-4.76-8.86-9.17-14.12-12.47c-7.35-4.62-14.89-9.04-21.73-14.43
	c-13.6-10.7-21.76-25.42-29.41-40.6"/>
<path class="st0" d="M264.35,471.52c2.77,5.15,7.66,9.61,11.83,13.62c3.41,3.28,7.09,6.23,11.49,8.08
	c3.74,1.57,15.55,6.25,20.41,9.79"/>
<path class="st0" d="M292.84,495.39c-11.24-4.19-11.09-18.46-15.01-27.82c-2.03-4.82-5.69-13.79-11.45-15.17
	c-5.69-1.36-4.1,4.94,0.06,6.2"/>
<path class="st0" d="M275.72,464.23c-4.64,1.44-8.79,1.17-13.25-0.33c-8.17-2.76-12.97-15.67-3.62-21.02
	c10.17-5.81,24.89,1.02,30.64,10.07c4.15,6.53,4.76,14.29,4.23,21.76"/>
<path class="st0" d="M513.94,711.02c15.18-1.1,24.84-20.93,23.84-34.22c-1.08-14.36-12.18-24.61-23.88-31.34"/>
<path class="st0" d="M511.99,670.66c14.98,4.41,12.41,23.72,2.34,31.2"/>
<path class="st0" d="M519.4,626.99c16.01,7.38,24.39,27.14,24.06,43.73c-0.22,10.61-4.05,19.3-10.23,27.74
	c-2.51,3.43-6.49,8.95-10.9,9.83"/>
<path class="st0" d="M463.47,436.42c-8.79-7.59-14.94-16.04-23.82-24.95c-4.71-4.73-15.92-15.05-11.01-20.07
	c3.36-3.43,8.18-5.32,12.28-7.61c3.7-2.06,6.43-4.63,9.52-7.44c7.05-6.42,14.82,8.08,18.49,12.84c4.22,5.47,9.12,9.58,13.73,14.53
	c-0.27,0.13-0.42-0.03-0.77-0.03"/>
<path class="st0" d="M455.46,381.99c3.22,3.35,4.85,5.45,7.8,8.48c2.8,2.87,6.44,4.99,2.35,8.24c-2.81,2.24-5.87,4.49-8.71,6.62
	c-1.52,1.14-3.01,2.48-4.37,3.79c-5.43,5.22-10.15-4.69-13.8-7.88c-1.27-1.11-3.63-3.34-3.18-5.34c0.48-2.18,5.3-3.78,6.91-4.92
	c2.93-2.09,5.35-3.04,7.98-5.5C452.04,383.96,453.67,382.99,455.46,381.99c-0.42-0.12-0.12,0.85-0.58,0.88"/>
<path class="st0" d="M455.32,388.98c-0.36,1.83-7.33,5.46-9.34,6.85"/>
<path class="st0" d="M459.03,393.62c-0.69,0.56-3.34,2.24-4.52,3.49"/>
<path class="st0" d="M402.91,554.66c0.98,0.6,1.36-1.8,1.41-2.93c0.16-3.88-2.32-7.54-3.16-11.21c-0.62-2.73-0.7-6.2,3.03-6.22
	c2.42-0.02,4.52,2.07,4.29,4.51"/>
<path class="st0" d="M407.96,539.54c5.36-0.26,9.52-4.9,6.45-10.29c-4.63-8.11-22.72-8.72-25.66,1.06"/>
<path class="st0" d="M499.02,563.37c0.54-4.33,14.55-2.47,11.89,4.99c-1.5,4.22-7.32,7.07-10.84,3.51"/>
<path class="st0" d="M506.15,544.79c-6.14,0.19-4.41,10.34,1.51,7.91c6.51-2.68,0.03-11.52-4.66-7.39"/>
<path class="st0" d="M511.61,554.24c-0.58,0-0.61,3.06,2.03,2.22c3.3-1.05,1.35-4.88-1.41-2.64"/>
<path class="st0" d="M364.28,318.45c0.09-13.1,3.41-20.64,13.5-29.47c3.74-3.27,8.67-6.99,10.12-11.96
	c1.82-6.26-7.01-10.88-7.93-4.4"/>
<path class="st0" d="M378.51,288.1c-4.33,0-6.3-3.42-7.39-6.94c-2.98-9.6,3.07-20.32,11.95-24.84c16.83-8.56,31.9,8.05,28.46,24.96
	c-3.7,18.16-25.48,28.25-25.04,48.55"/>
<path class="st0" d="M365.72,304.4c-4.6-2.58-15.28,5.8-13.12,10.79"/>
<path class="st0" d="M342.92,312.31c0.11-6.68,4.48-11.3,10.47-13.69c4.8-1.92,11.59-4.19,16.71-2.31"/>
<path class="st0" d="M346.46,302.17c-4.39-1.93-16.13-0.87-16.1,5.96"/>
<path class="st0" d="M321.05,305.8c-0.32-2.41,2.69-4.98,4.35-6.29c3.94-3.13,8.76-5.29,13.72-6.02c4.9-0.72,13.01,0,16.45,4.31"/>
<path class="st0" d="M573.55,247.51c-6.68-1.46-13.54,6.64-15.99,11.5c-3.98,7.91-2.55,20.24,0.3,28.83
	c4.89,14.77,9.9,28.3,3.48,43.08"/>
<path class="st0" d="M548.32,235.66c-10.2,5.61-11.12,24.42-9.21,36c1.7,10.31,6.99,18.04,11.04,27.59
	c5.43,12.82,8.2,26.28,4.79,39.99"/>
<path class="st0" d="M577.11,248.98c6.17,5.35-4.12,14-9.03,11.97"/>
<path class="st0" d="M568.09,260.95c4.83,9.18,15.46,8.93,21.99,6.44c4.67-1.78,10.65-6.64,9.87-15.22"/>
<path class="st0" d="M533.04,383.51c1.97-2.76,4.09-5.28,5.95-8.15c4.53-6.98,8.1-14.36,11.02-22.18
	c2.47-6.63,3.33-14.31,2.75-21.29c-0.44-5.32-1.04-10.16-3.1-15.29c-3.94-9.8-10.76-16.14-20.17-20.46
	c-6.5-2.98-16.83-5.56-25.65-4.28c-6.32,0.92-13.18,2.81-19.76,3.66c-19.86,2.55-39.52-8.12-29.68-26.77
	c4.49-8.5,27-15.03,34.14-3.85c6.29,9.85-8.1,19.06-14.72,9.94c-5.37-7.39,8.31-19.55,14.72-9.94"/>
<path class="st0" d="M330.82,540.45c-5.39,1.27-8.76,5.5-8.3,11.06"/>
<path class="st0" d="M322.68,532.92c-6.82,2.36-13.31,11.27-12.91,18.59"/>
<path class="st0" d="M290.72,542.91c3.54-4.8,16.75-4.85,20.59,0.31"/>
<path class="st0" d="M284.73,535.22c5.6-7.94,27.41-8.27,33.03,0"/>
<path class="st0" d="M314.69,527.08c-1.75,0.43-3.59,1.4-3.99,3.23"/>
<path class="st0" d="M306.85,522.32c-3.48,1.11-6.27,3.59-7.53,6.91"/>
<path class="st0" d="M282.73,525.85c2.71-0.17,7.53,1.19,8.61,4.3"/>
<path class="st0" d="M281.81,518.63c5.7-1.75,17.61-1.11,20.13,5.68"/>
<path class="st0" d="M298.86,516.63c-1.2-0.05-2.43,0.94-3.23,2.15"/>
<path class="st0" d="M294.03,470.04c2.36-32.31,35.66-32.25,57.35-38.65c8.37-2.47,17.16-4.88,20.16-13.33"/>
<path class="st0" d="M331.4,439.71c10.39,0.24,20.15,1.76,30.59,0.16c9.49-1.45,18.84-5.31,25.43-12.54
	c1.29-1.42,2.08-2.54,3.23-4.33"/>
<path class="st0" d="M337.91,453.79c-4.06,1.79-5.45,8.46-2.25,12.25"/>
<path class="st0" d="M329.19,448.43c-4.44,3.6-6.37,8.64-4.71,14.47c0.53,1.86,2.6,8.21,7.08,8.8"/>
<path class="st0" d="M343.27,443.21c19.31,4.66,45.84,6.28,60.41-9.81"/>
<path class="st0" d="M386.87,391.48c2,2.1,4.21,6.1,4.52,10.51"/>
<g>
	<path class="st0" d="M341.38,243.71c3.9,4.38,12.86,8.14,19.18,8.7"/>
	<path class="st0" d="M341.38,243.71c0.3,4.28-2.88,14.76-7.07,17.01c-1.84,0.99-5.38-0.4-4.88-3.53c0.76-4.82,9.04-1.81,6.14,2.08"
		/>
	<path class="st0" d="M360.57,252.41c-1.27,4.45-2.08,14.03-6.85,17.37c-2.14,1.49-7.63-0.05-5.44-4.15
		c2.17-4.08,7.38,0.39,5.67,2.71"/>
	<path class="st0" d="M340.37,248.97c6.69,3.53,11.76,6.88,19.02,8.59"/>
</g>
<path class="st0" d="M298.37,454.74c0.05-1.28,1.74-2.49,2.54-3.45c1.5-1.82,2.7-3.31,3.03-5.67c0.45-3.31,0.49-6.81,3.41-8.98"/>
<path class="st0" d="M307.19,436.48c-4.45-0.65-9.38,2.73-11.47,6.5c-3.14,5.66-0.87,12.17-0.44,18.12"/>
<path class="st0" d="M293.61,448.47c0.13-3.54,0.25-5.68-1.85-9.05c-2.63-4.21-4.1-6.87-4.11-11.84"/>
<path class="st0" d="M287.49,427.66c-3.08,0.23-3.81,8.08-4.19,10.41c-0.51,3.1-0.08,5.67,0.38,8.65"/>
<path class="st0" d="M287.33,428.3c-2.92,2.44-0.72,9.92,0.15,13.02c1.28,4.59,3.58,8.75,5.38,13.15c1.27,3.1,1.42,6.24,1.45,9.56"
	/>
<path class="st0" d="M307.19,436.63c-2.67,0.5-6.49,3.47-7.32,6.22c-1.13,3.71-1.89,12.46-4.43,15.54"/>
<path class="st0" d="M551.79,303.7c-2.22-11.02-18.63-20.09-28.45-21.04c-13.49-1.32-26.98,0.05-39.76,4.73
	c-16.71,6.13-31.71-3.96-27.29-16.62c3.39-9.7,15.72-12.73,22.43-11.51"/>
<path class="st0" d="M655.35,586.87c0,0,32.76-17.02,31.33-50.25c-1.43-33.24-27.35-56.93-67.42-68.06"/>
<path class="st0" d="M686.59,529.15c2.61,0.38,6.09,2.18,5.39,5.22c-0.43,1.87-2.11,4.86-4.47,3.96"/>
<path class="st0" d="M683.62,519.7c-0.81-1.36-0.03-3.3,1.51-3.65c2.69-0.59,3.59,3.13,3.88,5.07c0.39,2.65,0.61,5.67-0.34,8.23"/>
<path class="st0" d="M689.22,521.74c0.47-1.93-0.22-4.8,2.34-5.26c2.89-0.52,4.43,2.55,4.22,4.97c-0.33,3.83-2.94,6.72-5.61,9.12"/>
<path class="st0" d="M694.77,524.95c0.93-1.42,1.18-1.56,1.79-2.05c1.24-1.01,2.91-1.44,4.4-1.03c3.37,0.92,3.9,4.74,0.86,6.39
	c-3.08,1.67-6.6,1.87-9.45,3.93"/>
<path class="st0" d="M697.34,530.07c2.9-1.32,6.28-1.57,9.04,0.23c3.77,2.45,3.07,5.67-1.49,5.94c-4.17,0.25-8.18-1.49-12.18-2.3"/>
<path class="st0" d="M697.81,535.33c2.11,1.23,8.56,2.49,9.1,5.21c0.71,3.58-5.01,2.91-8.12,1.12c-2.44-1.41-4.84-3.25-7.18-4.76"/>
<path class="st0" d="M688.96,538.46c2.74,3.58,4.15,9.32,9.47,9.63c4.67,0.27,3.67-4.46,0.36-6.41"/>
<path class="st0" d="M693.34,545.37c1.87,3.19,0.26,6.42-3.06,5.85c-2.83-0.48-2.93-3.43-3.78-5.57"/>
<path class="st0" d="M539.4,273.45c-2.15-11.56,0.59-29.61-16.27-31.18c-7.72-0.72-15.58,5.59-13.7,13.92
	c0.9,4.02,9.69,8.5,11.82,3.44"/>
<path class="st0" d="M520.94,259.31c-7-1.16,3.06-10.45,5.37-1.61c1.85,7.12-5.45,14.58,0.01,24.87"/>
<path class="st0" d="M455.55,244.44c-0.4-1.14-0.63-1.99,0-3.15c0.88-1.6,3.22-2.08,4.27-0.35c1.95,3.23-2.4,5.91-4,3.82"/>
<path class="st0" d="M490.97,226.66c2.75,0.27,5.07,1.09,6.48,3.81c0.82,1.59,0.61,3.22,0.2,4.9c-0.36,1.43-1.89,4.54,0.81,4.61"/>
<path class="st0" d="M490.45,226.59c-1.42,1.65-1.94,5.98-2.78,8.73c-0.93,3.07-2.01,7.06-3.65,10.28c-1.8,3.52-7.04,1.02-6.66-1.95
	c0.25-1.92,1.25-3.8,3.42-3.88c1.54-0.06,4.71,1.46,4.14,3.51"/>
<path class="st0" d="M489.1,230.25c2.1-0.23,4.25-0.06,5.99,1.99c1.04,1.23,2.03,2.48,1.72,5.19"/>
<g>
	<path class="st0" d="M264.03,288.83c2.08-1.83,4.26-2.96,7.21-2.13c1.72,0.48,2.77,1.75,3.71,3.2c0.8,1.23,2.03,4.48,3.92,2.56"/>
	<path class="st0" d="M263.62,289.16c0.23,2.16,3.04,5.51,4.48,7.99c1.6,2.78,3.78,6.29,5.01,9.69c1.34,3.71-4.06,5.84-5.97,3.54
		c-1.24-1.5-1.92-3.51-0.5-5.15c1.01-1.17,4.28-2.44,5.39-0.63"/>
	<path class="st0" d="M265.37,292.65c1.27-1.68,2.85-3.14,5.55-3.02c1.61,0.08,3.2,0.21,4.96,2.3"/>
</g>
<path class="st0" d="M418.19,273.12c4.26-1.89,4.72-8.43,4.78-10.45c0.11-3.93-0.92-7.82-0.58-11.77c0.27-3.18,3.38-6.7,6.4-7.65"/>
<path class="st0" d="M428.79,243.21c-3.59-0.56-8.15,1.44-11.44,2.55c-4.72,1.59-12.73,7.55-12.78,13.5"/>
<path class="st0" d="M427.11,244.15c0.03-0.12,0.04-0.23,0.1-0.31c-4.34,1.19-8.8,4.44-11.75,7.77c-1.62,1.83-2.76,3.96-3.78,6.17
	c-1.1,2.36-1.27,6.49-1.29,9.05"/>
<path class="st0" d="M432.23,269.81c5.21-4.1,5.16-8.94,5.3-10.76c0.12-1.55-0.21-3.21,0.1-4.73c0.36-1.75,1.52-3.46,2.6-4.87"/>
<path class="st0" d="M439.97,249.25c-2.22-0.39-4.6,0.83-6.66,1.46c-3.31,1.02-9.5,2.28-9.98,6.51"/>
<path class="st0" d="M440.18,250.14c-2.25-0.57-5.59,2.4-7,3.89c-3.29,3.47-6.28,11.81-7.42,16.41"/>
<path class="st0" d="M285.17,401.12c-2.63,5.01-5.61,9.88-8.46,14.75c-0.86,1.47-2.5,4.72-4.05,5.54c-2.71,1.42-5.8-1.84-5-4.57
	c1.06-3.67,8.84-5.88,7.3-0.17"/>
<path class="st0" d="M285.49,401.14c2.55-1.13,4.7,2.49,5.28,4.55c0.77,2.69-3.22,9.9,0.23,11.18"/>
<path class="st0" d="M283.1,405.73c6.17-1.92,3.69,8.76,6.73,9.9"/>
<path class="st0" d="M556.5,271.32c3.07-0.52,5.71-0.51,7.89,2.13c2.1,2.53,1.22,6.07-1.97,7.09"/>
<path class="st0" d="M565,279.16c3.1,2.74,2.63,6.8-0.26,9.66c-1.36,1.35-4.01,2.5-5.73,1.07"/>
<path class="st0" d="M568.57,292.61c-4.46-1.35-5.21,6.74-0.64,8.09c2.56,0.76,6.34-1.02,6.33-4.04c-0.01-2.84-4.5-4.75-6.88-3.99"
	/>
<path class="st0" d="M571.56,272.4c-1.58-0.98-3.68,3.97,0.2,4.43c4.53,0.54,2.64-6.8-1.65-3.91"/>
<path class="st0" d="M678.3,272c1.47-0.24,3.23-0.2,4.72,0"/>
<path class="st0" d="M680.07,260.35c3.24,1.03,2.79,1.55,5.16,2.06"/>
<path class="st0" d="M687.59,251.21c1.47,2.14,2.67,2.82,4.72,4.42"/>
<path class="st0" d="M700.87,251.8c-0.27-2.61-0.98-3.26-0.89-5.9"/>
<path class="st0" d="M722.25,254.75c1.31-2.28,2.36-2.88,3.39-5.31"/>
<path class="st0" d="M731.24,261.98c2.07-1.47,2.93-2.23,5.01-3.39"/>
<path class="st0" d="M734.92,271.64c2.36-0.44,4-0.53,6.05-0.88"/>
<path class="st0" d="M730.98,289.23c1.44,1.08,3.57,1.74,5.34,2.45"/>
<path class="st0" d="M720.49,301.04c0.48,0.84,1.06,1.61,1.73,2.31"/>
<path class="st0" d="M713.41,305.01c-0.1,0.62,0.1,1.18,0.58,1.59"/>
<path class="st0" d="M726.34,296.63c0.77,0.68,1.5,1.42,2.16,2.17"/>
<path class="st0" d="M734.5,281.71c1.91,0.2,3.94,0.44,5.85,0.87"/>
<path class="st0" d="M712.81,245.46c-0.45,2.58-0.73,3.54-0.59,6.19"/>
<path class="st0" d="M501.85,590.99c2.05-0.05,5.21,0.88,5.82,3.09"/>
<path class="st0" d="M501.09,584.51c3.55-0.55,8.09,1.16,10.33,4.05"/>
<path class="st0" d="M80.81,494.48c-2.3,1.5,0.27,4.19,2.23,4.19c1.58,0,4.51-1.4,3.64-3.44"/>
<path class="st0" d="M79.84,494c-1.34-0.79-6.9-2.71-7.76-0.89c-0.95,2.01,6.09,2.86,7.47,2.94c-1.8-0.06-10.84,2.04-7.49,5.01
	c2.33,2.07,7.34-1.5,9.14-2.95c-0.85,0.99-1.93,2.21-1.43,3.6c0.46,1.27,1.87,1.72,3.1,1.57c2.96-0.37,2.17-2.59,2.08-4.71
	c0.44,3.59,5.14,3.65,7.69,2.48c4.8-2.2-1.59-4.52-3.92-4.73"/>
<path class="st0" d="M99,480.38c0.5,0.41,1.16,0.83,1.58,1.4"/>
<path class="st0" d="M104.96,473.7c1.08,0.13,2.27,0.44,3.22,0.97"/>
<path class="st0" d="M107.57,465.55c1.6,0,3.2,0,4.8,0"/>
<path class="st0" d="M108.48,453.94c-0.88,0.15-3.11,1.28-4.32,1.76"/>
<path class="st0" d="M97.42,442.51c-0.81,0.86-1.43,1.89-2.19,2.8"/>
<path class="st0" d="M82.28,440.02c-0.44,1.11-0.37,2.52-0.49,3.71"/>
<path class="st0" d="M64.9,442.57c0.2,1.35,1.93,2.11,2.19,3.65"/>
<path class="st0" d="M51.03,451.99c0.3,1.33,3.8,1.9,4.8,3.1"/>
<path class="st0" d="M44.89,469.38c1.18,0.37,2.7,0.12,3.95,0.12"/>
<path class="st0" d="M48.42,485.98c1.17-0.3,2.35-0.88,3.34-1.52"/>
<g>
	<path class="st0" d="M305.01,189.54c-0.24-0.33-4.8-3.35-8.53-1.59c-11.56,3.82-3.73,19.67,1.59,26.63
		c6.65,8.71,20.86,15.49,27.86,6.77c1.93-2.41,2.64-6.28-1.75-12.77"/>
	<path class="st0" d="M324.46,210.69"/>
	<path class="st0" d="M311.44,191.63c-6.76-4.74-8.35,1.46-6.35,6.07c2.74,6.33,6.29,9.36,9.85,11.66c2.18,1.41,7.87,2.71,8.48-0.85
		c0.6-3.47-2.65-7.55-4.18-9.39C316.04,195.28,313.14,192.85,311.44,191.63"/>
	<path class="st0" d="M299.69,191.54c1.07-0.54,5.01-1.75,6.89-1.55"/>
	<path class="st0" d="M323.15,209.94c0.68,1.94-0.32,4.77-1.61,6.48"/>
	<path class="st0" d="M299.69,191.54c-6.83,5.59,4.75,24.73,15.7,26.24c2.24,0.31,4.17,0.09,6.15-1.37"/>
	<path class="st0" d="M293.61,189.74c-12.28,9.96-7.86,20.78-0.98,30.09c6.42,8.69,17.42,14.44,25.43,10.18
		c7.29-3.88,10.53-8.77,9.48-14.25"/>
	<path class="st0" d="M274.32,260.82c3.99-4.97,0.43-10.92-2.75-15.78c-2.47-3.76-6.77-8.24-10.07-10.87
		c-2.05-1.63-4.9-3.35-7.02-4.26c-2.32-0.99-5.14-1.22-7.5-0.11c-10.73,3.55-3.46,18.27,1.48,24.73
		C254.63,262.62,267.83,268.91,274.32,260.82z"/>
	<path class="st0" d="M264.53,257.51c1.56,0.22,4.01,0.18,5.14-1.19c1.07-1.3,0.88-3.42,0.27-4.87c-2.35-5.6-7.74-11.17-13.53-15.11
		c-1.99-1.36-4.19-2.75-6.51-1.5c-4.66,2.52,0.07,10.26,2.07,13.24C254.91,252.46,259.26,256.78,264.53,257.51z"/>
	<path class="st0" d="M244.31,231.47c-11.4,9.25-7.3,19.3-0.91,27.94c5.97,8.07,16.17,13.41,23.61,9.45
		c6.77-3.6,9.78-8.15,8.8-13.23"/>
	<path class="st0" d="M311.38,197.29c0.35,1.49-0.06,2.99,0.5,4.48"/>
	<path class="st0" d="M315.48,200.95c-0.07-0.23-0.17-0.45-0.25-0.68c0.64,1.43,0.29,3.19,0.49,4.72"/>
	<path class="st0" d="M286.92,208.74c1.06-0.32,1.68-1.36,2.45-2.09"/>
	<path class="st0" d="M295.05,210.88c-0.7,0.65-1.52,1.17-2.07,1.95"/>
	<path class="st0" d="M295.19,222.33c0.86-0.63,1.38-1.6,2.21-2.27"/>
	<path class="st0" d="M300.65,227.09c0.75-0.41,1.35-1.09,1.88-1.79"/>
	<path class="st0" d="M313.28,225.39c-0.71,0.39-1.23,1.06-1.9,1.52"/>
	<path class="st0" d="M248.64,241.23c2.25-5.61,14.61,10.48,15.67,13.08c0.28,0.69,1.08,2.19,0.21,1.82"/>
	<path class="st0" d="M242.05,242.6c0.42-0.02,0.19-0.17-0.21,0.44c-0.56,0.86-1.36,1.57-1.94,2.42"/>
	<path class="st0" d="M241.07,256.1c0.69-0.48,1.33-1.13,1.95-1.67"/>
	<path class="st0" d="M243.85,259.83c0.45-0.37,0.92-0.79,1.33-1.18"/>
	<path class="st0" d="M251.67,258.5c-0.7,0.88-1.59,1.63-2.42,2.36"/>
	<path class="st0" d="M258.95,266.75c1.96-0.85,4.56-3.12,3.87-5.63"/>
	<path class="st0" d="M269.79,261.32c0.12,1.07,0.05,2.16-0.05,3.25"/>
	<path class="st0" d="M252.61,241.81c0.29,1.72-1.01,3.66-0.66,5.34"/>
	<path class="st0" d="M256.33,244.81c-0.06,2.47-0.9,5.03-0.96,7.52"/>
	<path class="st0" d="M260.26,249.98c0,1.58-1.3,3.34-0.77,5.04"/>
	<path class="st0" d="M240.3,237.23c0,0-15.07-13.9-7.96-34.73c7.11-20.83,35.21-30.02,58.4-9.04"/>
	<path class="st0" d="M244.04,231.73c0,0-15.07-13.9-7.96-34.73c7.11-20.83,38.28-28.16,58.4-9.04"/>
	<path class="st0" d="M272.54,264.61c1.62,9.02,12.54,8.96,19.72,8.75c7.22-0.21,45.13-2.45,47.38,19.63"/>
	<path class="st0" d="M269.63,268.04c3.96,3.49,4.99,4.97,11.43,4.73"/>
</g>
<path class="st0" d="M639.78,211.43c14.48-8.2,20.5,19.95,2,17.29"/>
<path class="st0" d="M623.16,239.91c0.19,3.51,6.59,4.17,9.09,3.44c2.33-0.69,5.32-2.66,5.87-5.91"/>
<path class="st0" d="M648.87,228.6c6.65,5.98-0.26,14.96-7.86,13.13c-1.28-0.31-2.43-0.74-3.45-1.6"/>
<path class="st0" d="M675.69,214.09c-10.14-3.59-16.19,16.07-2.98,16.84c6.75,0.39,12.58-8.6,7.08-14.18
	c-1.39-1.42-3.07-2.44-4.99-2.77"/>
<path class="st0" d="M666.68,203.59c-3.38-1.58-6.92,5.23-2.42,6.97c2.22,0.86,5.56,0.19,6.07-2.37c0.58-2.95-2.67-6.34-6.14-4.17"
	/>
<path class="st0" d="M613.13,256.16c-5.23-0.72-5.56,7.93-0.02,7.06c5.72-0.9,2.17-9.5-2.25-6.52"/>
<path class="st0" d="M533.13,218.01c-3.12-0.5-6.25,0.64-7.81,3.48c-0.98,1.78-1.79,6.05,0.34,7.25"/>
<path class="st0" d="M532.91,233.4c3.23-0.52,4.43-0.99,6.94-3.04"/>
<path class="st0" d="M524.02,225.27c-6.43-0.35-8.23,10.59-2.82,12.79"/>
<path class="st0" d="M525,236.44c-2.2-0.5-3.7,2.73-3.58,4.55"/>
<path class="st0" d="M542.34,240.77c-1.54-2.7-6.65-1.77-8.24,0.65"/>
<path class="st0" d="M513.51,219.74c-2.78-0.06-3.45,4.3-0.36,4.55c3.5,0.28,3.22-4.35,0.04-4.88"/>
<path class="st0" d="M542.24,200.88c-0.15-5.01-7.66-5.56-8.82-0.84c-0.89,3.6,1.2,5.99,4.7,6.04"/>
<path class="st0" d="M524.02,184.84c-2.32,0.94-1.1,4.05,1.37,3.14c3.1-1.15,0.6-5.73-1.8-3.57"/>
<path class="st0" d="M697.61,396.41c0.37-3.62-2.83-5.88-7.18-5.65c-1.58,0.08-3.74,0.85-4.86,2.1c-0.64,0.71-1.33,2.21-0.48,2.64"
	/>
<path class="st0" d="M686.85,395.49c-5.57-0.53-9.01,3.15-7.94,8.93"/>
<path class="st0" d="M688.45,380.84c-2.49-0.67-4.17,3.3-1.47,3.59c2.5,0.27,3.29-4.05,0.33-3.28"/>
<path class="st0" d="M714.06,423.24c-3.83,5.64,2.07,9.29,7.1,6.13c4.72-2.97,2.75-8.11-2.41-8.6"/>
<path class="st0" d="M729.07,418.08c-2.74-0.9-2.82,3.9,0.29,3.3c2.88-0.56,2.01-3.66-0.99-3.18"/>
<path class="st0" d="M276.02,357.38c-3.1-0.25-5.64,3.56-4.74,6.36c0.63,1.96,3.46,3.52,5.44,2.5"/>
<path class="st0" d="M274.18,366.89c-1.28,2.71,0.39,4.79,2.89,5.98c2.31,1.1,4.95,0.7,7.13-0.55c2.73-1.56,3.54-4.88,2.3-7.68
	c-0.57-1.29-1.29-1.88-2.64-2.29"/>
<path class="st0" d="M287.15,367.38c1.65,0.14,3.4-0.5,4.37-1.95c0.41-0.62,0.27-1.37,0.71-1.83"/>
<path class="st0" d="M289.47,377.8c-2.18-1.17-4.72,4.69-0.57,4.84c3.67,0.13,4.11-4.28,0.24-4.62"/>
<path class="st0" d="M231.67,277.25c9.63,1.45,11.97-13.23,1.39-13.53c-0.38,0,0.51,0.13,0.38,0.1"/>
<path class="st0" d="M230.47,268.16c1.58-0.77,2.13-2.72,2.05-4.38c-0.16-3.1-2.43-3.91-5.15-4.3c-2.61-0.37-5.56-0.37-6.32,2.69
	c-0.32,1.27-0.4,4.6,1.03,5.15"/>
<path class="st0" d="M224.93,269.36c-0.91-1.51-2.93-2.05-4.65-1.98c-3.54,0.14-5.47,2.49-4.77,5.86"/>
<path class="st0" d="M246.28,277.63c-4.84-0.36-4.54,6.57,0.04,5.13c2.68-0.84,1.8-6.06-0.89-5.29"/>
<path class="st0" d="M209.24,253.72c-6.23-2.11-6.08,12.44,2.14,8.18c5.9-3.06,0.31-10.93-4.64-7.3"/>
<path class="st0" d="M214.57,246.24c-0.55,0.58-0.3,2.36,1.45,1.81c2.19-0.69,1.22-4.22-1.43-2.61"/>
<path class="st0" d="M315.78,239.78c-5.86-1.04-6.92,7.95-0.8,6.82c5.21-0.96,3.53-8.33-0.77-6.3"/>
<path class="st0" d="M309.15,251.27c-9.67-1.72-11.41,13.1-1.32,11.25c8.59-1.58,5.82-13.73-1.28-10.39"/>
<path class="st0" d="M292.15,238.52c-2.17-0.42-1.53,3.52,1.29,2.56c2.92-0.99-0.2-4.07-2.02-2.63"/>
<path class="st0" d="M327.62,297.06c-0.49-3.44-7.3-4.54-9.59-2.87"/>
<path class="st0" d="M320.27,298.04c-0.02-4.24-6.99-4.96-9.8-3.81c-1.39,0.56-6.04,4.55-4.33,6.33"/>
<path class="st0" d="M306.06,285.51c-3.19-1.39-4.57,5.22-0.32,4.71c3.96-0.48,2.59-6.26-1.64-4.5"/>
<path class="st0" d="M405,221.28c-1.76,0.58-2.57,3.04-2.59,4.71c-0.03,2.98,2.24,4.29,4.93,4.68c3.01,0.44,8.61-0.63,7.79-4.86"/>
<path class="st0" d="M414.32,229.54c2.27,4.37,9.28,3.27,11.84,0.78c1.99-1.94,4.34-8.32-1.3-11.56"/>
<path class="st0" d="M399.32,232.14c-4.25-0.86-4.7,6.32-0.95,6.34c4,0.02,4.62-6,0.14-6.25"/>
<path class="st0" d="M445.14,214.28c-1.5,0.45-1.94,2.7-1.62,3.75c0.83,2.72,3.89,3.51,6.11,2.48c1.61-0.75,3.19-3.09,2.14-5.48
	c-0.28-0.65-1.2-2.15-2.84-1.95"/>
<path class="st0" d="M440.8,223.35c-1.02,0.08-0.95,1.53,0.18,1.54c1.75,0.02,1.16-2.15-0.38-1.44"/>
<path class="st0" d="M131.47,321.39c-8.1-1.9-12.97,11.76-3.96,13.27c4.98,0.84,11.09-4.6,8.51-9.86c-1.1-2.24-4.97-3.62-7.21-3.41"
	/>
<path class="st0" d="M121.21,312.84c-1.73,2.3-1.72,5.93,2.92,5c4.39-0.88,1.49-9-3.33-4.55"/>
<path class="st0" d="M180.41,376.09c-6.68-1.98-13.58,3.8-13.49,9.19"/>
<path class="st0" d="M170.77,387.18c-5.96-5.1-14.11,5.65-8.72,10.23"/>
<path class="st0" d="M662.06,488.68c-0.23-0.06-0.38,0.59-0.48-0.02c2.7-4.87,15.64-3.24,12.77,3.5"/>
<path class="st0" d="M670.53,492.04c4.7-0.65,8.45,1.27,9.04,6.35c0.28,2.39-0.71,4.81-2.67,6.29"/>
<path class="st0" d="M686.08,483.22c-5.36-0.98-4.95,9.4,1.37,7.21c6.12-2.12,0.4-10.55-4.73-6.4"/>
<path class="st0" d="M693.04,494.71c-2.42-0.2-2.39,4.45,0.5,3.48c2.54-0.85,0.71-3.24-1.31-3.25"/>
<path class="st0" d="M624.94,461.88c-1.71,0.45-1.53,2.91,0.73,2.79c3.2-0.17,1.47-4.36-1.3-2.67"/>
<path class="st0" d="M74.28,421.51c-4.27,0.38-2.31,8.69,2.4,6.69c4.49-1.91,1.96-8.5-3.42-6.44"/>
<path class="st0" d="M65.92,416.08c-1.87-0.22-1.97,3.36,0.31,2.67c1.84-0.56,1.16-2.92-0.69-2.25"/>
<path class="st0" d="M522.97,708.63c-3.04,12.83,16.87,13.13,16.65,2.87"/>
<path class="st0" d="M534.07,710.83c1.11,1.69,5.25,0.65,6.82-0.15c2.33-1.19,3.5-3.31,3.62-5.82c0.22-4.63-4.46-10.24-9.57-8.47"/>
<path class="st0" d="M555.61,686.24c-10.98-1.58-10.36,13.18-0.81,11.33c5.46-1.05,6.76-11.56-1.1-11.43"/>
<path class="st0" d="M557.33,705.38c-3.86-1.18-4.73,4.85-1.16,5.54c4.9,0.94,3.71-6.73,0.01-5.25"/>
<path class="st0" d="M704.76,315.05c-4.49-5.52-14.19-2.93-17.28,4.49c-3.28,7.87,3.2,16.51,11.77,15.84
	c2.57-0.2,5.22-1.52,6.43-3.87"/>
<path class="st0" d="M704.47,320.53c-2.3-7.96,10.03-10.47,13.75-5.96c4.38,5.3-0.58,13.56-6.67,12.21"/>
<path class="st0" d="M702,335.41c-0.64,7.13,14.61,8.98,16.76-0.67c0.63-2.85-0.06-6.98-3.18-7.96"/>
<path class="st0" d="M734.49,321.68c-6.1-2.86-10.5,8.91-2.72,10.16c3.97,0.63,7.27-2.86,6.1-7.04c-0.61-2.17-2.16-2.66-4.03-3.51"
	/>
<path class="st0" d="M655.61,311.81c-2.99,1.11-0.6,6.87,0.39,7.92c2.54,2.73,6.56,2.38,9.66,0.77c2.38-1.23,3.57-3.77,3.54-5.88
	c-0.01-1,0.12-2.98-0.94-3.49"/>
<path class="st0" d="M390.94,352.01c2.96-4.44,12.02-19.8,14.52-26.37"/>
<path class="st0" d="M389.16,370.09c6.22-0.59,5.92-1.19,12.57-14.81c2.14-4.38,5.74-10.36,7.58-14.82c1.81-4.38,4.11-13.81-2.66-16
	c0.17,1.01-0.81-0.13-0.89,0.59"/>
<path class="st0" d="M391.53,365.64c-0.28,0.37-0.5,0.69-0.7,0.54c4.75-3.46,6.25-10.98,8.98-15.97c2.21-4.03,8.01-14.2,7.74-14.8
	c-1.09-2.38-1.86-5.59-2.39-8.28"/>
<path class="st0" d="M386.19,354.09c3.35,1.08,4.56,8.29,5.04,11.55"/>
<path class="st0" d="M385.31,372.75c5.03,0.63,6.35,6.86,6.22,11.26"/>
<path class="st0" d="M391.53,384.9c5.41-10.72,11.52-20.88,17.18-31.11"/>
<path class="st0" d="M406.35,346.25c1.97,2.33,2.35,4.81,2.07,7.54"/>
<path class="st0" d="M393.01,388.75c4.92-3.33,8.25-13.77,11.25-18.93c3.08-5.29,8.1-14.48,7.73-17.27
	c-0.48-3.63-1.4-7.13-3.31-9.85"/>
<path class="st0" d="M478.98,556.78c-0.8-4.06-3.08-7.37-5.06-10.93c-4.14-7.45-6.45-15.36-7.82-23.75
	c-4.08-24.94-5.68-49.96,5.81-73.23c12.23-24.76,32.84-42.26,48.6-64.35c14.2-19.91,16.72-49.55-3.76-66.65
	c-13.14-10.97-33.04-11.42-47.8-3.46c-6.41,3.46-14.21,9.64-16.12,16.99c-1.51,5.82-1.67,12.87-0.7,18.82
	c3.2,19.5,23.27,24.7,40.37,19.32"/>
<path class="st0" d="M492.49,369.55c-3.36-4.06-4.31-8.23-0.3-12.28c3.55-3.58,10.6-6.22,15.01-2.67
	c10.41,8.37-3.5,24.73-9.08,30.93c-15.02,16.7-28.83,31.83-35.74,53.66c-6.79,21.44-10.93,42.39-7.52,64.88
	c2.8,18.46,6.83,38.99,19.24,53.59"/>
<path class="st0" d="M488.51,556.56c-11.64-18.68-13.8-39.72-13.68-61.46c0.07-11.43,4.38-23.03,8.57-33.56
	c4.46-11.2,11.76-23.61,19.86-32.57c10.63-11.77,22.38-20.46,37.57-24.97c4.7-1.39,9.44-2.82,14.38-2.54"/>
<path class="st0" d="M504.01,405.67c12.28-19.92,44.54-31.01,66.16-30.13c4.15,0.17,7.18,1.11,11.47,2.2"/>
<path class="st0" d="M460.99,262.71c-5.29,3.2-10.2,7.67-11.46,13.92c-1.03,5.08-0.62,10.18,1.42,14.97
	c4.08,9.57,14.03,15.03,23.81,16.81c3.74,0.68,7.51,0.68,11.29,0.93"/>
<path class="st0" d="M491.35,369.38c-31.87-1.33-16.27-56.61,18.27-40.38c15.88,7.47,19.17,30.92,13.81,45.5
	c-2.47,6.72-5.61,13.29-9.89,19.04"/>
<path class="st0" d="M528.99,437.92c-13.15,12.13-28.33,24.81-36.45,41.09c-8.36,16.75-8.45,38.71-4.67,56.76
	c1.73,8.26,4.78,16.12,8.24,23.79"/>
<path class="st0" d="M521.46,446.24c19.41,1.59,45.41,14.08,57.68,30.17c2.82,3.7,4.72,7.06,6.5,11.43"/>
<path class="st0" d="M467.61,425.15c-2.53-2.32-8.01-6.39-8.21-10.25c-0.11-2.13,7.93-9.16,10.25-9.23
	c2.27-0.07,4.48,3.41,5.99,4.82"/>
<path class="st0" d="M470.89,413.03c-1.45,1.35-2.96,2.67-3.9,4.41"/>
<path class="st0" d="M430.45,389.54c-0.92-2.46-3.8-4.99-3.86-8.2c3.33,1.22,5.31,3.63,7.06,6.15"/>
<path class="st0" d="M426.34,381.32c-7.42-6.34-7.9-21.51-6.71-30.09c2.2-16.01,11.59-28.81,25.99-36.01
	c10.26-5.13,17.71-6.64,29.56-6.7"/>
<path class="st0" d="M410.76,425.14c6.25-12.76,3.62-28.26-5.46-39.02c-1.47-1.74-3.71-3.7-5.22-4.71"/>
<path class="st0" d="M502.91,379.59c-6.48-6.99-15.99,2.85-8.33,8.85"/>
<path class="st0" d="M509.67,367.62c-3.59-4.79-14.54-6.94-19-2.87"/>
<path class="st0" d="M482.6,372.3c-5.36,5.12-3.88,21.01,4.69,23.95"/>
<path class="st0" d="M445.12,315.29c-14.19,5.24-14.75,25.97-11.71,38"/>
<path class="st0" d="M433.66,353.56c-0.78-7.87,14.84-12.5,18.22-18.48"/>
<path class="st0" d="M478.18,309.04c-24.06,6.12-46.23,16.04-45.03,44.25"/>
<path class="st0" d="M399.73,326.04c-0.54-6.88,6.35-15.59,11.31-19.58c2.9-2.34,9.95-6.79,13.62-3.86
	c2.72,2.17,1.98,7.04-0.11,9.27"/>
<path class="st0" d="M414.61,304.3c-11.11,7.8,5.67,30.96,20.09,18.9"/>
<path class="st0" d="M435.88,322.26c18.43-13.94,6.14-45.37-18.16-37.3c-4.52,1.5-7.87,3.14-10.67,7.05"/>
<path class="st0" d="M194.84,512.24c-3.28-1.64-22.2-5.58-28.03-1.64c-6.63,4.48,7.58,9.89,12.25,11.2
	c4.55,1.28,18.62,4.83,26.11,0.88c5.41-2.85-4.71-8.83-12.52-11.36"/>
<path class="st0" d="M165.32,511.96c2.35-9.67,2.72-18.6,4.66-28.51c1.23-6.25,1.44-12.39,2.73-19.94"/>
<path class="st0" d="M206.81,521.13c4.4-12.13,7-22.43,10.58-34.29c1.92-6.37,4.29-14.81,5.67-21.02"/>
<path class="st0" d="M176.4,443.9c-0.05-13.34-1.12-26.61-1.96-42.2"/>
<path class="st0" d="M196.26,439.61c-0.84-8.25,0.6-17.22,1.95-24.98"/>
<path class="st0" d="M211.84,441.72c1.5-8.2,2.97-16.64,4.05-24.94"/>
<path class="st0" d="M215.89,416.78c8.11-1.07,12.83,0.47,17.02-8.59c1.71-3.69,2.17-12.32,0-15.18"/>
<path class="st0" d="M186.81,397.34c-1.73,7.17,4.16,16.53,11.12,16.06"/>
<path class="st0" d="M206.22,419.96c0.38-3.01,2.14-22.54,2.56-25.58"/>
<path class="st0" d="M192.25,395.61c-0.31,3.28,2.22,11.78,6.98,9.68c2.39-1.05,2.1-9.05,2.97-11.64"/>
<path class="st0" d="M215.11,393.27c-5.79,21.56,18.19,16.67,11.74-0.86"/>
<path class="st0" d="M206.22,419.96c2.22,3.85,4.93,6.79,6.41,11.1"/>
<path class="st0" d="M204.52,431.21c0.01-1.44-0.31,0.63-0.28,1.17c0.18,0.09,0.37,0.12,0.57,0.09c0.72-0.93-0.29-1.35-0.29-1.56
	L204.52,431.21z"/>
<path class="st0" d="M186.37,440.84c-0.26-9.77-1.08-32.47-0.91-42.29"/>
<path class="st0" d="M230.54,387.14c-4.45-9.2-15.51-6.78-21.02-0.07"/>
<path class="st0" d="M208.02,386.74c-5.44-8.92-18.6-8.97-21.36,2.36"/>
<path class="st0" d="M174.39,445.87c3.05-3.86,14.96-6.23,26.14-5.34c8.83,0.7,24.87,7.27,26.23,14.43"/>
<path class="st0" d="M227.17,383.23c0,0,0.96-4.9,1.06-5.34c0.57-2.6,0.84-5.38,1.47-7.9"/>
<path class="st0" d="M212.22,381.67c0.88-4.65,1.92-9.61,3.03-13.5"/>
<path class="st0" d="M213.61,373.99c4.85,0.29,9.26,1.13,13.88,2.3"/>
<path class="st0" d="M214.75,369.24c3.91,0.96,8.87,1.76,13.2,2.19"/>
<path class="st0" d="M214.35,370.11c2.13-3.09,1.78-9.09,2.92-12.72"/>
<path class="st0" d="M216.75,359.04c0.92-5.01,13.27-4.32,14.69-0.32"/>
<path class="st0" d="M231.43,359.3c-0.34,3.38-1,7.67-1.93,10.98"/>
<path class="st0" d="M175.76,421.41c2.1,1.49,6.88,2.15,9.18-0.06"/>
<path class="st0" d="M175.52,416.91c2,1.69,7.74,2.44,9.4-0.27"/>
<path class="st0" d="M226.39,453.54c2.56-6.54,3.35-9.13,5.67-15.81"/>
<path class="st0" d="M232.06,437.73c0.48-2.73,1.84-10.34,2.27-13.51"/>
<path class="st0" d="M234.12,423.89c-1.35,0.19-2.79-0.35-3.21-1.59"/>
<path class="st0" d="M230.26,422.17c-1.43,0.74-7.35,8.02-8.33,9.49"/>
<path class="st0" d="M234.79,417.56c-0.39,0.79-0.75,1.65-1.03,2.5"/>
<path class="st0" d="M221.91,432.98c1.53,1.64,5.55,3.68,7.79,4.19c0.86,0.2,1.77,0.07,2.65,0.18"/>
<path class="st0" d="M221.91,432.98c-0.17-0.52,0.31-0.88-0.3-0.95c-2.32,3.6-3.57,8.4-5.08,12.36"/>
<path class="st0" d="M220.86,416.97c-0.94,7.06-4.19,22.14-5.24,27.91"/>
<path class="st0" d="M224.82,392.42c-1.34,6.22-1.68,10.24-2.53,14.05"/>
<path class="st0" d="M226.76,454.96c-0.8,1.61-1.55,4.34-2.01,5.76"/>
<path class="st0" d="M175.6,444.7c-1.63,0.75-1.82,8.62-1.84,9.78"/>
<path class="st0" d="M155.32,404.38c-4.62,5.77-4.12,13.66-2.71,20.58c1.75,8.61,9.25,17.07,22.17,22.33"/>
<path class="st0" d="M220.09,423.84c2.13-0.13,3.99,0.72,5.9,1.43"/>
<path class="st0" d="M236.58,479.08c7.23-9.01-0.44-22.21-8.41-28"/>
<path class="st0" d="M230.43,442.67c6.03,2.64,9.17,8.3,11.12,12.94c4.32,10.29-1.33,22.84-6.98,26.23"/>
<path class="st0" d="M390.68,463.5c6.79-11.93,14.52-18.27,27.51-22.83c9.78-3.43,22.83-4.29,35.06-2.02
	c2.55,0.47,6.41,1.21,8.25,3.19"/>
<path class="st0" d="M395.36,468.18c11.07-13.13,37.19-16.66,51.96-8.11c3.02,1.75,5.9,3.87,7.93,6.74"/>
<path class="st0" d="M400.43,475.01c7.5-6.45,18.08-8.23,27.76-7.16c8.74,0.97,15.16,4.04,20.62,11.65
	c2.61,3.64,4.27,8.66,5.07,13.07"/>
<path class="st0" d="M371.37,500.96c6.86,2.7,17.56,14.63,22.44,23.21"/>
<path class="st0" d="M321.62,491.2c5.22-14.04,14.6-26.18,27.15-34.31c10.05-6.51,18.81-9.54,30.55-11.36
	c7.35-1.14,18.73-0.18,25.09,1.82"/>
<path class="st0" d="M332.96,498.25c-0.3-7.77,10.57-13.83,17.82-13.82"/>
<path class="st0" d="M450.22,483.16c-9.58,2.11-5.6,19.02,3.45,14.73"/>
<path class="st0" d="M444.41,474.8c-16.14,5.67-10.35,28.73,3.57,33.07c2.14,0.67,4.37,0.69,6.61,0.74"/>
<path class="st0" d="M434.04,469.35c-11.41,3.19-11.6,20.56-8.52,29.71c3.12,9.24,11.43,21.74,31.24,19.02"/>
<path class="st0" d="M458.4,524.25c-17.82,0.91-38.17,18.5-38.72,34.72"/>
<path class="st0" d="M460.22,533.89c-8.65,2.43-18.25,16.2-17.82,25.09"/>
<path class="st0" d="M464.42,543.29c-5.53,4.71-6.26,9.74-6.01,16.42"/>
<path class="st0" d="M486.22,524.61c9.59,0,24.63-1.48,32.54-7.63"/>
<path class="st0" d="M487.49,532.98c8.95,1.16,20.38,0.47,28.36-4.18"/>
<path class="st0" d="M489.07,538.37c9.8-0.16,18.16-0.41,27.31-6.69"/>
<path class="st0" d="M510.4,456.07c14.57-2.98,34.87,13.76,39.32,27.09c0.66,1.98,1.09,4.09,1.04,6.18"/>
<path class="st0" d="M499.31,467.71c15.51-8.74,35.25,2.68,38.63,19.38c0.6,2.98,1.34,5.51-0.82,8.07"/>
<path class="st0" d="M532.58,502.07c-0.2,0.81-0.69,1.43-1.45,1.82"/>
<path class="st0" d="M525.67,510.8c-0.2,0.6-0.57,1.1-1.09,1.45"/>
<path class="st0" d="M494.8,476.3c2.99,3.01,9.12-0.3,11.4-2.61c1.85-1.87,2.87-5.65,1.71-8.18"/>
<path class="st0" d="M489.13,487.84c4.41,3.25,10.88,1.02,15.57-0.21c6.17-1.62,12.33-8.22,14.19-14.28
	c0.62-2.02,0.83-4.36,0.9-6.47"/>
<path class="st0" d="M486.67,501.7c8.36,2.58,18.54,1.34,26.08-2.87c7.42-4.14,14.17-9.28,18.08-17.13c0.82-1.63,1.42-3.44,1.93-5.2
	"/>
<path class="st0" d="M485.48,364.99c-0.7-0.11-1.33-0.32-1.93-0.64"/>
<path class="st0" d="M479.95,360.75c-0.57-0.64-1.01-1.4-1.29-2.19"/>
<path class="st0" d="M477.38,353.8c-0.31-0.6-0.4-1.51-0.26-2.31"/>
<path class="st0" d="M478.02,345.44c0.07-0.92,0.38-1.8,0.9-2.57"/>
<path class="st0" d="M482.39,337.46c0.09-0.84,0.76-1.62,1.67-2.06"/>
<path class="st0" d="M489.08,331.8c0.96-0.35,1.98-0.7,2.96-1.03"/>
<path class="st0" d="M497.96,330c0.81,0.1,1.62,0.15,2.44,0.13"/>
<path class="st0" d="M505.81,331.67c1.43-0.23,2.72,0.27,3.47,1.54"/>
<path class="st0" d="M513.91,337.08c0.74,0.54,1.5,1.16,2.19,1.8"/>
<path class="st0" d="M518.54,344.02c0.5,0.72,0.91,1.66,1.16,2.57"/>
<path class="st0" d="M521.24,354.06c0.23,1.03,0.44,2.06,0.64,3.09"/>
<path class="st0" d="M521.24,365.25c0,1.84-0.43,3.6-0.77,5.4"/>
<path class="st0" d="M518.16,377.08c-0.48,1.66-1.09,3.31-1.8,4.89"/>
<path class="st0" d="M513.27,387.12c-0.26,0.86-0.73,1.79-1.29,2.57"/>
<path class="st0" d="M507.61,395.35c-0.45,0.74-1.11,1.49-1.8,2.06"/>
<path class="st0" d="M500.53,403.2c-0.83,1.05-1.75,2.01-2.7,2.96"/>
<path class="st0" d="M492.94,411.81c-0.3,0.87-0.79,1.66-1.42,2.32"/>
<path class="st0" d="M487.28,419.28c-0.66,0.56-1.22,1.42-1.54,2.31"/>
<path class="st0" d="M480.72,428.03c-0.85,1.23-1.79,2.4-2.7,3.6"/>
<path class="st0" d="M473.52,438.19c-0.2,0.96-0.67,2.05-1.29,2.96"/>
<path class="st0" d="M468.63,447.83c-0.16,1.23-0.53,2.44-1.03,3.6"/>
<path class="st0" d="M465.03,456.84c-0.02,0.79-0.2,1.58-0.51,2.31"/>
<path class="st0" d="M462.33,466.74c-0.14,0.98-0.31,1.98-0.52,2.96"/>
<path class="st0" d="M460.01,479.22c-0.05,1.54-0.17,3.08-0.13,4.63"/>
<path class="st0" d="M459.62,491.44c-0.16,0.87-0.16,1.81,0,2.7"/>
<path class="st0" d="M460.14,501.61c-0.01,1.04,0.08,2.07,0.26,3.09"/>
<path class="st0" d="M461.04,510.87c0,0.56,0,1.11,0,1.67"/>
<path class="st0" d="M462.58,519.1c0.06,0.67,0.25,1.5,0.52,2.19"/>
<path class="st0" d="M464.25,526.56c-0.01,0.7,0.12,1.42,0.39,2.06"/>
<path class="st0" d="M466.57,534.92c0.09,0.67,0.31,1.34,0.64,1.93"/>
<path class="st0" d="M469.27,543.8c0.09,0.48,0.31,0.92,0.64,1.29"/>
<path class="st0" d="M473,550.75c0.33,0.67,0.65,1.45,0.9,2.19"/>
<path class="st0" d="M547.23,377.18c9.5-17.2,20.66-32.75,39.51-40.39c1.5-0.61,2.91-1.1,4.54-1.22"/>
<path class="st0" d="M632.62,337.61c0.01,3.15,6.07,7.29,9.25,6.93"/>
<path class="st0" d="M659.96,333.26c2.29-2.24,4.37-8.8,1.77-11.15"/>
<path class="st0" d="M413.25,430.64c-1.82-6.27,12.92-8.38,11.58-1.97"/>
<path class="st0" d="M421.51,432.74c1.13-4.43,10.9-5.83,12.57-1.23"/>
<path class="st0" d="M431.99,429.29c0.83-8.13,13.91-6.67,15.4,0.55c0.67,3.23-0.97,5.99-3.94,7.09"/>
<path class="st0" d="M424.46,416.47c4.19-2.51-0.45-8.65-4.15-6.54C416.43,412.15,420.34,418.94,424.46,416.47z"/>
<path class="st0" d="M450.97,346.72c-7.84-1.24-10.44,11.22-2.55,13.29c2.34,0.61,4.6,0.06,6.49-1.34"/>
<path class="st0" d="M411.72,279.59c6.15-11.78,20.37-5.56,29.82-12.94"/>
<path class="st0" d="M441.22,266.97c1.73,6.69-2.48,15.09-8.68,18.15"/>
<path class="st0" d="M441.07,266.97c-1.13,13.26-24.78,12.58-30.26,21"/>
<path class="st0" d="M584.26,483.74c0.35-4.43,7.18-5.88,9.79-2.61c1.79,2.26,1.63,7.7-1.79,8.32"/>
<path class="st0" d="M578.55,474.95c5.25-6.34,13.06-8.43,21.06-6.03c8.47,2.53,10.32,14.11,5.8,20.98c-1.45,2.2-3.6,3.54-5.85,4.81
	"/>
<path class="st0" d="M313.2,442.2c8.59-3.91,18.26-3.42,25.87-0.79c4.98,1.72,8.01,2.76,14.45,12.08"/>
<path class="st0" d="M314.39,484.71c2.22-2.77,7.29-4.67,10.75-3.73"/>
</svg>
