<?xml version="1.0" encoding="utf-8"?>
<!-- Generator: Adobe Illustrator 28.1.0, SVG Export Plug-In . SVG Version: 6.00 Build 0)  -->
<svg version="1.1" id="Ebene_1" xmlns="http://www.w3.org/2000/svg" xmlns:xlink="http://www.w3.org/1999/xlink" x="0px" y="0px"
	 viewBox="0 0 841.89 595.28" style="enable-background:new 0 0 841.89 595.28;" xml:space="preserve">
<style type="text/css">
	.st0{fill:#022C56;}
</style>
<g>
	<path class="st0" d="M258.96,247.26c-0.9,1.88-4.42,4.95-6.9,4.8c-3.67-0.6-8.32-11.1-9.97-14.4c-1.5,2.7-7.05,12.52-8.55,13.57
		c-1.05,0.75-3,1.5-4.72,1.5c-0.82,0-3.6-0.3-4.42-2.77c-0.67-2.25-2.62-8.77-4.65-15.22c-2.02-6.6-4.05-12.6-5.02-14.1
		c-0.22-0.38-0.38-0.82-0.45-1.27c-0.3-2.47,3.07-3.75,5.32-3.75c1.35,0,3.6,0.3,5.17,2.02c2.1,2.4,5.4,11.7,7.65,18.52
		c1.42-2.47,2.47-6.52,3.75-9.07c1.27-2.7,2.33-3.75,6.23-3.75c4.12,0,5.47,1.88,7.2,4.8c1.28,2.17,2.77,5.85,3.9,8.1
		c1.12-3.3,1.8-8.1,2.93-11.4c0.9-2.48,2.4-3.9,5.7-3.9c1.05,0,4.05,0.52,4.35,3.15C266.91,227.54,260.91,243.06,258.96,247.26z"/>
	<path class="st0" d="M285.74,250.86c-0.6,0.45-1.43,0.75-2.48,0.75c-2.32,0-5.17-3.38-6.15-5.17c-0.52-1.05-0.82-2.77-0.97-4.27
		c-0.75-5.85-0.83-17.77,0.22-19.65c0.75-1.42,2.85-1.88,4.27-1.88c1.5,0,5.62,0.45,7.05,3.38c0.45,0.9,0.67,2.17,0.82,3.3
		C289.26,233.84,287.76,249.51,285.74,250.86z"/>
	<path class="st0" d="M320.61,242.24c2.85,1.5,6.9,3.23,9.9,4.95c0.83,0.45,1.88,1.35,2.02,2.77c0.38,2.62-3.75,4.2-6.3,4.2
		c-4.2,0-10.5-6.23-14.25-8.32c0.45,1.65,0.3,3.97,0.37,4.72c0.38,3.3-2.4,4.8-4.12,4.8c-1.8,0-4.42-0.67-6-2.77
		c-1.72-2.32-3.22-7.65-3.82-12.82c-0.23-1.58-0.3-3.15-0.38-4.73c-0.15-7.8,2.62-18.6,3.9-18.75c4.57-0.52,9.07-0.75,13.12-0.75
		c6.97,0,13.12,0.6,16.05,1.5c4.65,1.42,11.7,4.95,12.3,9.82C344.09,232.94,327.96,239.54,320.61,242.24z M317.39,224.16
		c-1.8,0-3.6,0.08-5.25,0.15c-0.75,2.93-1.12,8.62-1.12,12.22c6.52-2.02,17.92-7.95,19.2-11.02
		C328.41,224.84,323.69,224.16,317.39,224.16z"/>
	<path class="st0" d="M416.09,224.31c-2.02,0-2.7-0.97-5.25-0.97c-7.95,0-24.07,4.95-29.92,8.4c9.3,3,20.17,3.75,22.87,5.25
		c1.42,0.82,5.25,4.2,5.7,7.57c0.15,1.35-0.3,2.85-1.65,3.9c-2.55,1.87-15.6,7.35-19.12,7.35c-3.83,0-9.75-3.45-9.97-5.02
		c-0.08-0.83,0.07-1.42,0.52-2.02c1.5-2.25,6.37-0.75,18.22-5.02c-6.45-1.57-20.92-2.7-25.72-7.35c-1.35-1.27-1.8-3.3-1.95-4.65
		c-0.23-1.8-0.15-4.8,1.8-6.52c3.75-3.3,22.57-11.7,36.82-11.7c4.8,0,9.07,1.42,12.52,5.17c0.38,0.52,0.67,1.12,0.83,1.73
		C422.09,222.89,417.96,224.31,416.09,224.31z"/>
	<path class="st0" d="M439.86,254.31c-0.9,0.15-2.1,0.23-3.38,0.23c-10.72,0-13.57-5.7-14.62-14.25c-0.52-4.2-0.38-22.2,6.82-22.2
		c1.88,0,7.65,2.02,8.02,5.17c0,0.38,0,0.83-0.22,1.27c-2.62,6.22-3,14.85-2.4,19.57c0.15,1.35,0.3,2.55,0.52,3.45
		c5.62-1.65,14.32-18.9,14.62-30.75c0.07-2.92,4.8-4.12,6.97-4.12c4.8,0,5.25,3.3,5.55,5.17
		C463.11,229.04,451.86,252.36,439.86,254.31z"/>
	<path class="st0" d="M487.64,255.74c-1.12,0.38-2.4,0.52-3.67,0.52c-7.57,0-13.5-4.8-14.32-11.55
		c-1.28-10.42,12.45-35.62,28.12-35.62c2.47,0,6.67,1.57,7.05,4.8c0.23,1.95-1.2,3-2.47,3.38c-3.3,0.97-22.87,17.4-21.3,29.17v0.22
		c4.05-0.75,13.2-5.47,15.15-8.32c0.83-1.05,2.1-1.57,3.45-1.57c2.7,0,5.03,2.02,5.33,4.72
		C505.56,246.29,493.49,253.79,487.64,255.74z"/>
	<path class="st0" d="M556.56,232.79c-0.08,3.22,0.08,20.85-1.28,22.95c-0.75,1.2-2.02,1.58-3.15,1.58c-2.47,0-7.5-2.77-7.95-5.4
		c-0.3-1.73,0.3-4.2,0.38-5.92l0.08-2.25l-17.85,2.1c0,2.85,1.28,9.22-3.52,9.22c-2.1,0-5.1-1.2-6.6-3.52
		c-0.75-1.12-1.35-3.9-1.72-7.05c-0.9-7.27-1.43-21,0.52-23.85c0.83-1.12,2.1-1.42,3.15-1.42c2.7,0,7.42,2.55,7.8,5.85
		c0.22,1.43,0.22,7.35,0.15,11.4c5.17-0.98,13.8-2.4,18.3-2.77c-0.3-2.25-0.15-8.17-0.15-10.12c0-3.6,0.22-7.42,0.9-9.15
		c0.6-1.57,2.25-1.95,3.22-1.95c3,0,7.5,2.77,7.87,6.07C556.94,220.42,556.79,226.26,556.56,232.79z"/>
	<path class="st0" d="M592.11,215.84c-3.97,0.83-8.02,1.35-12,2.33c-0.53,3.82-1.28,12.3-1.73,17.55c2.33-0.75,4.58-1.43,7.2-1.43
		c4.88-0.07,11.17,1.05,11.55,3.9c-0.23,2.92-4.35,4.8-6.67,4.8c-0.3,0-0.53,0-0.75,0c-2.7,0-8.33,1.8-11.1,2.62
		c0,0.23,0.08,0.38,0.08,0.6c0.15,1.12,0,4.12,0.15,5.17c2.7-0.68,5.55-1.65,8.4-1.65c2.92,0,10.2,3,10.42,4.72
		c0.53,4.35-13.27,6.97-17.17,8.02c-0.98,0.3-2.17,0.6-3.23,0.6c-7.8,0-9.52-9.3-10.2-14.62c-1.35-11.17,0-22.42,1.42-33.22
		c-0.38-0.9-0.83-1.8-0.9-2.77c-0.15-1.12,0.15-3.52,2.92-3.9c3.75-0.52,7.35-1.27,10.57-1.95c3.08-0.6,6.15-1.12,8.4-1.12
		c2.78,0,10.42,3.08,10.65,6C600.21,212.62,596.69,214.87,592.11,215.84z"/>
	<path class="st0" d="M649.56,221.46c-0.45,8.62-1.35,17.17-0.75,25.87c0.15,3-4.8,4.87-7.2,4.87c-0.75,0-1.95-0.07-3.07-0.75
		c-1.95-1.12-7.12-6-12.22-10.8c-2.4-2.25-4.72-4.5-7.12-6.75c0.23,7.2,0.3,16.72,0.08,19.42c-0.15,1.65-1.28,3.23-3.67,3.23
		c-4.05,0-7.88-4.8-8.17-7.42c-0.45-3.75,0.67-24.82,0.22-29.77c-0.3-3,3.45-4.2,5.48-4.2c0.75,0,2.1,0.08,3.3,0.9
		c0.97,0.67,6.82,6.15,12.6,11.7c2.85,2.7,5.7,5.47,8.1,7.72c-0.23-7.65-0.45-20.02,0.3-23.92c0.38-1.95,2.1-2.7,3.67-2.7
		c4.05,0,7.95,3.82,8.47,7.35C649.71,217.42,649.64,219.36,649.56,221.46z"/>
	<path class="st0" d="M344.8,329.59c-0.3,0.08-0.6,0.08-0.9,0.08c-2.62,0-6.15-4.35-6.97-11.17c-1.42-11.77,2.1-30.07,2.85-30.15
		c3.97-0.45,7.65-0.6,10.87-0.6c10.42,0,17.32,1.88,20.17,3.52c3.52,2.02,7.88,4.65,8.47,9.67
		C380.87,314.14,351.48,328.31,344.8,329.59z M366.77,299.36c-5.7-3.3-18.22-1.95-18.67-1.65c-1.05,0.82-0.38,11.7,0.23,18.45
		c9.82-4.65,17.25-12.15,19.35-16.27L366.77,299.36z"/>
	<path class="st0" d="M397.45,324.86c-0.6,0.45-1.42,0.75-2.47,0.75c-2.33,0-5.17-3.38-6.15-5.17c-0.52-1.05-0.82-2.77-0.98-4.27
		c-0.75-5.85-0.82-17.77,0.23-19.65c0.75-1.42,2.85-1.88,4.27-1.88c1.5,0,5.62,0.45,7.05,3.38c0.45,0.9,0.67,2.17,0.82,3.3
		C400.98,307.84,399.48,323.51,397.45,324.86z"/>
	<path class="st0" d="M428.05,329.74c-1.12,0.38-2.4,0.52-3.67,0.52c-7.58,0-13.5-4.8-14.33-11.55
		c-1.27-10.42,12.45-35.62,28.12-35.62c2.48,0,6.67,1.57,7.05,4.8c0.23,1.95-1.2,3-2.47,3.38c-3.3,0.97-22.87,17.4-21.3,29.17v0.22
		c4.05-0.75,13.2-5.47,15.15-8.32c0.82-1.05,2.1-1.58,3.45-1.58c2.7,0,5.03,2.03,5.33,4.72
		C445.97,320.29,433.9,327.79,428.05,329.74z"/>
	<path class="st0" d="M496.97,306.79c-0.07,3.22,0.08,20.85-1.27,22.95c-0.75,1.2-2.03,1.58-3.15,1.58c-2.47,0-7.5-2.78-7.95-5.4
		c-0.3-1.72,0.3-4.2,0.38-5.92l0.08-2.25l-17.85,2.1c0,2.85,1.28,9.22-3.52,9.22c-2.1,0-5.1-1.2-6.6-3.53
		c-0.75-1.12-1.35-3.9-1.73-7.05c-0.9-7.27-1.42-21,0.53-23.85c0.83-1.12,2.1-1.42,3.15-1.42c2.7,0,7.42,2.55,7.8,5.85
		c0.23,1.42,0.23,7.35,0.15,11.4c5.17-0.97,13.8-2.4,18.3-2.77c-0.3-2.25-0.15-8.17-0.15-10.12c0-3.6,0.22-7.42,0.9-9.15
		c0.6-1.57,2.25-1.95,3.22-1.95c3,0,7.5,2.77,7.88,6.07C497.35,294.42,497.2,300.26,496.97,306.79z"/>
	<path class="st0" d="M512.12,330.11c-1.2,0.83-2.62,1.2-3.9,1.2c-2.17,0-5.92-1.35-6.3-4.28c-0.45-3.82,5.85-7.95,8.62-8.1
		c2.25-0.08,4.27,1.88,4.57,4.2C515.35,325.16,514.67,328.39,512.12,330.11z M519.1,313.54c-0.53,0.3-1.28,0.6-2.25,0.6
		c-2.62,0-4.05-2.1-4.28-4.05c-0.15-0.97-0.08-1.95,0.08-2.92c0.38-3.83,11.7-26.17,13.8-28.12c1.27-1.2,3.37-1.35,4.57-1.35
		c3.6,0,6.97,2.25,7.2,4.27C538.6,284.82,523.22,311.36,519.1,313.54z"/>
</g>
</svg>
